<?xml version="1.0" encoding="UTF-8"?>
<svg version="1.1" xmlns="http://www.w3.org/2000/svg" width="1024" height="1024">
<path d="M0 0 C1.03890381 -0.00524185 2.07780762 -0.0104837 3.14819336 -0.0158844 C5.33674224 -0.02228541 7.52532561 -0.02099261 9.71386719 -0.01245117 C13.05205765 -0.0039329 16.3885404 -0.03274437 19.7265625 -0.06445312 C21.85937449 -0.06606519 23.99218949 -0.06548751 26.125 -0.0625 C27.11685303 -0.07373398 28.10870605 -0.08496796 29.13061523 -0.09654236 C35.31058295 -0.03472808 39.02291874 0.78266542 44.0625 4.43359375 C47.19297371 8.60755869 48.14657021 12.49019887 48.2734375 17.62890625 C48.57975021 34.12908209 48.57975021 34.12908209 56.0625 48.43359375 C63.0614464 53.74413453 69.31465308 55.33543364 78.0625 54.43359375 C86.8632648 52.02679481 92.98286297 45.95966836 98.75 39.18359375 C101.96372226 35.46547562 104.29570118 32.80156868 109.3828125 32.125 C115.32631995 31.83226008 118.26622154 32.67301553 123.0625 36.43359375 C125.09159363 38.5190794 126.92723496 40.72974673 128.75 42.99609375 C132.16747967 47.24265383 132.16747967 47.24265383 135.89453125 51.2109375 C137.0625 52.43359375 137.0625 52.43359375 137.0625 54.43359375 C137.62195313 54.68882812 138.18140625 54.9440625 138.7578125 55.20703125 C146.08653105 59.10740011 153.04336397 65.104581 157.0625 72.43359375 C158.74866527 78.08720672 157.77852164 81.28251823 155.0625 86.43359375 C153.82731842 88.57394656 152.5611458 90.45151382 151.0625 92.43359375 C150.4025 92.43359375 149.7425 92.43359375 149.0625 92.43359375 C149.0625 93.09359375 149.0625 93.75359375 149.0625 94.43359375 C147.85189166 95.52079056 146.59259456 96.55413999 145.3125 97.55859375 C140.41160305 101.78170708 137.55169788 105.5874863 136.72265625 112.10546875 C136.45067631 119.98200778 137.77383718 126.16713314 143 132.18359375 C150.42203062 138.9561967 159.82013597 139.69193348 169.39331055 140.08056641 C175.83426471 140.3727334 180.55764957 141.12649467 185.4375 145.62109375 C189.16777454 152.07733814 189.3626327 158.85627924 189.328125 166.12109375 C189.33003845 167.02303467 189.3319519 167.92497559 189.33392334 168.85424805 C189.33527675 170.75016562 189.3316397 172.64609273 189.32324219 174.54199219 C189.31253065 177.42534423 189.32316635 180.30807332 189.3359375 183.19140625 C189.33461576 185.04297011 189.33205305 186.89453359 189.328125 188.74609375 C189.33217346 189.59840576 189.33622192 190.45071777 189.34039307 191.32885742 C189.27948888 199.19697756 188.28711937 206.19307617 183.0625 212.43359375 C177.22494372 216.15086298 171.37638465 216.13681756 164.66992188 216.51757812 C155.52510149 217.20709619 147.18272459 220.34618341 141.0625 227.43359375 C136.70932594 233.91183799 136.04076978 240.80189455 137.0625 248.43359375 C139.13916811 255.29359851 144.05156577 261.13954863 149.6875 265.43359375 C154.1138776 269.16106963 155.8039302 272.80460401 156.6875 278.37109375 C156.235175 285.72137494 150.16233724 290.46807004 145.0625 295.12109375 C142.42392512 297.43721984 139.77511848 299.65646105 137 301.80859375 C134.15290745 304.35280411 131.99100994 306.94620747 129.625 309.93359375 C124.77334243 315.93347694 121.07483133 320.21633162 113.25 321.49609375 C103.22464495 321.93328968 96.3963435 316.56837263 89.14746094 310.31933594 C83.79320806 305.80642147 78.30321494 303.90959234 71.17578125 304.1171875 C64.61929705 305.09884225 59.22170086 308.32371841 55.0625 313.43359375 C51.85890005 318.35302011 50.01316626 322.63864668 49.66796875 328.51171875 C49.59900391 329.50816406 49.53003906 330.50460937 49.45898438 331.53125 C49.32074226 333.6165095 49.19296734 335.70249189 49.07617188 337.7890625 C48.54593816 345.08094919 47.1245331 349.39727739 42.6875 355.24609375 C30.96438963 363.8129821 5.04555858 360.41746539 -8.625 358.74609375 C-13.7895458 357.7409137 -16.56434315 356.51688889 -19.9375 352.43359375 C-23.10350562 345.40926187 -23.60759432 338.91992361 -24.02148438 331.29882812 C-24.50235225 324.64925111 -25.6539597 317.70534925 -30.57006836 312.80688477 C-31.9375 311.43359375 -31.9375 311.43359375 -31.9375 309.43359375 C-40.0363378 305.04672327 -47.76835565 302.67757922 -56.875 305.37109375 C-61.56080414 307.30876226 -64.84835728 310.85002245 -68.5 314.2734375 C-73.90720565 319.0654002 -79.16849324 320.78913338 -86.25 321.74609375 C-94.58699562 320.77667565 -99.59499591 315.12794206 -104.875 309.12109375 C-110.92394769 302.30630501 -117.24109589 296.74242392 -124.6875 291.49609375 C-128.41240708 288.08159559 -131.4803106 284.38406024 -132.2734375 279.265625 C-132.01248136 272.56379675 -128.35043016 267.28974397 -123.9375 262.43359375 C-122.9475 262.10359375 -121.9575 261.77359375 -120.9375 261.43359375 C-119.33565685 259.74993016 -119.33565685 259.74993016 -117.875 257.68359375 C-117.36839844 257.008125 -116.86179687 256.33265625 -116.33984375 255.63671875 C-112.24162701 249.19829468 -112.2075456 242.88633808 -112.9375 235.43359375 C-114.94019767 228.64607246 -119.3038819 224.35394028 -124.9375 220.24609375 C-132.66808885 216.08733879 -142.69911514 216.24044805 -151.28125 215.875 C-155.93795866 215.10116459 -158.39114122 213.16207212 -161.1875 209.43359375 C-163.40503244 205.63210956 -164.06488845 202.95157736 -164.11450195 198.63012695 C-164.12733719 197.65513748 -164.14017242 196.68014801 -164.15339661 195.6756134 C-164.16078354 194.62250473 -164.16817047 193.56939606 -164.17578125 192.484375 C-164.183853 191.39779099 -164.19192474 190.31120697 -164.20024109 189.19169617 C-164.21407888 186.88928827 -164.22480239 184.58685988 -164.23266602 182.28442383 C-164.24984807 178.77710625 -164.29373469 175.27073881 -164.33789062 171.76367188 C-164.34802051 169.5247465 -164.35653569 167.28581313 -164.36328125 165.046875 C-164.38078934 164.00388748 -164.39829742 162.96089996 -164.41633606 161.88630676 C-164.39777972 155.60215768 -163.70016602 150.61636421 -159.9375 145.43359375 C-154.15874882 140.63845979 -149.03988085 140.37587354 -141.75 140.05859375 C-135.5800093 139.67787934 -129.60455443 139.0656257 -123.9375 136.43359375 C-123.6075 135.77359375 -123.2775 135.11359375 -122.9375 134.43359375 C-121.9475 133.62921875 -120.9575 132.82484375 -119.9375 131.99609375 C-116.74469023 129.71511168 -116.74469023 129.71511168 -115.9375 126.43359375 C-115.2775 126.43359375 -114.6175 126.43359375 -113.9375 126.43359375 C-112.16906205 118.25456825 -111.61377283 109.82577246 -115.9375 102.43359375 C-118.13731622 99.63692816 -120.51336588 97.03619174 -122.9375 94.43359375 C-124.2147492 93.02270882 -125.48578295 91.60616784 -126.75 90.18359375 C-127.31332031 89.5596875 -127.87664062 88.93578125 -128.45703125 88.29296875 C-131.8617087 84.01690947 -132.50948366 80.41097478 -132.3671875 75.01953125 C-131.10260078 67.40901845 -124.28445916 62.79385913 -118.5 58.390625 C-112.96587179 54.1641033 -108.75320635 50.24908541 -104.6875 44.62109375 C-103.15175932 42.50259433 -101.59151997 40.46542044 -99.9375 38.43359375 C-99.2775 38.43359375 -98.6175 38.43359375 -97.9375 38.43359375 C-97.710625 37.81484375 -97.48375 37.19609375 -97.25 36.55859375 C-95.45202118 33.64758042 -94.2520721 33.27986748 -90.9375 32.43359375 C-84.49362113 31.64891477 -81.21095409 32.38515322 -75.9375 36.43359375 C-72.94604457 39.27334374 -70.13401331 42.2826199 -67.32421875 45.30078125 C-62.61372504 50.18962327 -57.88281256 53.69452694 -51.1015625 54.96484375 C-43.71485297 54.8739304 -36.51225147 53.97874065 -31.05078125 48.5625 C-26.23027438 42.38804931 -24.68827032 37.04841152 -24.4375 29.24609375 C-23.57016595 10.89307028 -23.57016595 10.89307028 -17.9375 3.43359375 C-12.00705243 0.10016193 -6.70659544 -0.01984986 0 0 Z M-42.1015625 131.7421875 C-55.56084417 147.56593757 -60.43289974 166.63057785 -59.15625 187.04101562 C-57.34751041 206.82410484 -47.23063923 224.76788932 -32.3125 237.68359375 C-14.89842023 250.79891483 4.84813743 254.89908082 26.34570312 252.140625 C44.78387234 248.86507631 60.69040966 238.03975439 72.0625 223.43359375 C76.94667161 216.2231665 80.58376019 208.77909964 83.0625 200.43359375 C83.28808594 199.69367188 83.51367188 198.95375 83.74609375 198.19140625 C86.62331339 186.72221347 87.42699864 168.16259103 82.0625 157.43359375 C81.0725 157.43359375 80.0825 157.43359375 79.0625 157.43359375 C79.38541016 156.12648438 79.38541016 156.12648438 79.71484375 154.79296875 C80.50534024 147.15446337 74.64871751 139.90827143 70.125 134.12109375 C68.78705641 132.54467992 67.43398731 130.98091277 66.0625 129.43359375 C65.54300781 128.82 65.02351563 128.20640625 64.48828125 127.57421875 C52.95100635 114.90355916 35.05836659 107.16136228 18.15625 106.21484375 C-5.99879179 105.48696668 -25.64885724 114.19065535 -42.1015625 131.7421875 Z M80.0625 154.43359375 C81.0625 156.43359375 81.0625 156.43359375 81.0625 156.43359375 Z " fill="#FE7C10" transform="translate(499.9375,329.56640625)"/>
<path d="M0 0 C12.14820237 3.34167877 23.34520058 15.36977867 32.0234375 24.17578125 C34.41089707 26.59660386 36.86497678 28.86812619 39.4453125 31.08203125 C44.87694007 35.7706038 49.83206152 40.92205244 54.859375 46.03515625 C60.48424822 51.71801785 66.23292441 57.13446127 72.5703125 62.01953125 C73.2303125 62.57640625 73.8903125 63.13328125 74.5703125 63.70703125 C74.5703125 64.36703125 74.5703125 65.02703125 74.5703125 65.70703125 C75.16199219 65.97 75.75367188 66.23296875 76.36328125 66.50390625 C78.67418796 67.76365716 80.1197008 69.01454591 81.8828125 70.95703125 C82.41519531 71.5190625 82.94757813 72.08109375 83.49609375 72.66015625 C85.09519329 75.70716774 84.54499212 77.4608525 83.5703125 80.70703125 C81.78515625 83.19921875 81.78515625 83.19921875 79.5078125 85.58203125 C78.29738281 86.85820312 78.29738281 86.85820312 77.0625 88.16015625 C76.24007813 89.000625 75.41765625 89.84109375 74.5703125 90.70703125 C73.42949219 91.90585938 73.42949219 91.90585938 72.265625 93.12890625 C68.31831099 97.20635149 68.31831099 97.20635149 66.5703125 98.70703125 C65.9103125 98.70703125 65.2503125 98.70703125 64.5703125 98.70703125 C64.31378906 99.30128906 64.05726563 99.89554687 63.79296875 100.5078125 C62.45321685 102.91765378 61.1329882 104.15575113 59.0078125 105.89453125 C55.92636104 108.49381314 53.06514464 111.18886342 50.2578125 114.08203125 C46.1969819 118.19161968 41.89508246 121.84957608 37.3828125 125.453125 C35.52790954 126.93962362 33.69371678 128.45239244 31.8828125 129.9921875 C21.99499463 138.3709634 11.06540615 146.92874489 -2.2421875 148.01953125 C-7.06430288 147.54677484 -7.06430288 147.54677484 -9.4296875 145.70703125 C-11.17886672 142.07393604 -11.75811566 138.89470443 -12.02734375 134.890625 C-12.14625977 133.2499707 -12.14625977 133.2499707 -12.26757812 131.57617188 C-12.34169922 130.44373047 -12.41582031 129.31128906 -12.4921875 128.14453125 C-12.64671553 125.89301958 -12.8041472 123.64170482 -12.96484375 121.390625 C-13.0306665 120.39603271 -13.09648926 119.40144043 -13.16430664 118.37670898 C-13.39568574 116.04908211 -13.78730615 113.9505373 -14.4296875 111.70703125 C-15.09250732 111.83255371 -15.75532715 111.95807617 -16.43823242 112.08740234 C-21.25460718 112.98353099 -26.06518744 113.82187858 -30.91796875 114.49609375 C-72.29523344 120.33604271 -112.53144641 134.64028607 -147.60888672 157.51953125 C-149.24791243 158.58848017 -150.90237662 159.6336671 -152.55859375 160.67578125 C-170.53561129 172.22020612 -187.566027 186.26994304 -202.3203125 201.72265625 C-204.4296875 203.70703125 -204.4296875 203.70703125 -206.4296875 203.70703125 C-206.64496094 204.25230469 -206.86023438 204.79757812 -207.08203125 205.359375 C-208.89100227 208.51065495 -211.38663562 210.7857869 -213.9921875 213.26953125 C-219.60227137 218.74668272 -224.57888058 224.54246412 -229.4296875 230.70703125 C-230.0484375 231.45855469 -230.6671875 232.21007812 -231.3046875 232.984375 C-248.19377429 253.56794952 -274.17230598 285.50115997 -277.96484375 312.51953125 C-278.19494141 314.09734375 -278.19494141 314.09734375 -278.4296875 315.70703125 C-279.0896875 316.03703125 -279.7496875 316.36703125 -280.4296875 316.70703125 C-281.38361247 318.80312521 -281.38361247 318.80312521 -282.19921875 321.38671875 C-282.69276855 322.85951294 -282.69276855 322.85951294 -283.19628906 324.36206055 C-283.54143555 325.42465088 -283.88658203 326.48724121 -284.2421875 327.58203125 C-284.59893555 328.67104736 -284.95568359 329.76006348 -285.32324219 330.88208008 C-288.40314796 340.40539959 -291.1846417 349.95248186 -293.4296875 359.70703125 C-293.6045166 360.46322754 -293.7793457 361.21942383 -293.95947266 361.99853516 C-296.01560273 371.16151407 -297.43840459 380.34900731 -298.4609375 389.6796875 C-298.54750107 390.46689178 -298.63406464 391.25409607 -298.72325134 392.06515503 C-299.15468074 396.0336393 -299.56487145 400.00307888 -299.94750977 403.9765625 C-300.09899804 405.45053349 -300.25060417 406.92449236 -300.40234375 408.3984375 C-300.52875244 409.71013916 -300.65516113 411.02184082 -300.78540039 412.37329102 C-301.42824174 415.69955044 -302.15246288 417.25943104 -304.4296875 419.70703125 C-307.4296875 418.70703125 -307.4296875 418.70703125 -308.30419922 417.10205078 C-310.45063209 410.35765978 -311.57549742 403.58245853 -312.5546875 396.58203125 C-312.81233887 394.77037476 -312.81233887 394.77037476 -313.07519531 392.92211914 C-314.24179776 384.51295423 -315.26283916 376.20287221 -315.4296875 367.70703125 C-315.4603833 366.34239746 -315.4603833 366.34239746 -315.49169922 364.95019531 C-317.04152302 284.18003932 -289.281458 204.55833747 -234.27734375 144.80078125 C-232.29023411 142.64369862 -232.29023411 142.64369862 -230.4296875 139.70703125 C-229.7696875 139.70703125 -229.1096875 139.70703125 -228.4296875 139.70703125 C-228.02810425 138.81189819 -228.02810425 138.81189819 -227.6184082 137.89868164 C-226.41349091 135.67716951 -225.25403398 134.34793975 -223.41015625 132.640625 C-222.8071167 132.07851318 -222.20407715 131.51640137 -221.58276367 130.93725586 C-220.93412354 130.34565674 -220.2854834 129.75405762 -219.6171875 129.14453125 C-218.60458862 128.21362671 -218.60458862 128.21362671 -217.5715332 127.26391602 C-215.5335164 125.4010581 -213.48482667 123.55097034 -211.4296875 121.70703125 C-210.8728125 121.206875 -210.3159375 120.70671875 -209.7421875 120.19140625 C-158.90116027 74.94289202 -94.02167878 51.75781372 -27.4296875 42.70703125 C-26.2864502 42.55041016 -26.2864502 42.55041016 -25.12011719 42.390625 C-20.89199115 41.81348123 -16.66208611 41.25211289 -12.4296875 40.70703125 C-12.2596791 37.06134586 -12.09429947 33.41546397 -11.9296875 29.76953125 C-11.88199219 28.74794922 -11.83429688 27.72636719 -11.78515625 26.67382812 C-11.57656566 22.01033841 -11.40571247 17.36777737 -11.44921875 12.69921875 C-11.42828436 8.42022877 -10.96455596 5.66537624 -9.4296875 1.70703125 C-5.74737067 -0.74784664 -4.2394812 -0.62024564 0 0 Z " fill="#FEAC4F" transform="translate(518.4296875,156.29296875)"/>
<path d="M0 0 C1.20500656 0.38388382 2.41001312 0.76776764 3.65153503 1.1632843 C6.84657542 2.18250442 10.03917865 3.20872417 13.23071289 4.23883057 C17.66198859 5.66719798 22.09753857 7.08223768 26.53244019 8.4992981 C29.00113582 9.28833957 31.46934138 10.07891608 33.93704224 10.87106323 C41.90364145 13.42128421 49.89004373 15.886954 57.93916321 18.16496277 C71.18986349 22.01017599 71.18986349 22.01017599 74.35546875 25.17578125 C74.08407899 32.09622022 71.29702008 35.35599348 66.5625 39.89453125 C61.83452211 44.19784047 56.75348254 47.76453642 51.35546875 51.17578125 C51.81651881 56.02132693 54.18757078 59.02425622 57.16796875 62.67578125 C57.89089111 63.58130737 57.89089111 63.58130737 58.62841797 64.50512695 C62.71058767 69.54784574 67.05652506 74.32936723 71.55786133 79 C73.84267443 81.39357738 75.29406624 82.99157372 76.35546875 86.17578125 C77.01546875 86.17578125 77.67546875 86.17578125 78.35546875 86.17578125 C78.35546875 86.83578125 78.35546875 87.49578125 78.35546875 88.17578125 C79.01546875 88.17578125 79.67546875 88.17578125 80.35546875 88.17578125 C82.07202255 89.79102074 83.7307038 91.46824079 85.35546875 93.17578125 C92.67606315 100.8177676 100.23871679 107.53066407 108.68261719 113.90429688 C110.19503156 115.05383775 111.68675153 116.23048173 113.17578125 117.41015625 C138.13602804 136.89479334 167.74305918 151.33381839 197.35546875 162.17578125 C198.14888672 162.47274902 198.94230469 162.7697168 199.75976562 163.07568359 C257.51624445 184.5262885 325.33820746 183.98725456 383.29052734 163.88134766 C384.78714383 163.36997125 386.29119874 162.88019901 387.79931641 162.40380859 C388.60804199 162.14680176 389.41676758 161.88979492 390.25 161.625 C390.98710205 161.39514404 391.7242041 161.16528809 392.48364258 160.9284668 C394.55507391 160.23767318 394.55507391 160.23767318 396.35546875 158.17578125 C398.1965332 157.48901367 398.1965332 157.48901367 400.40625 156.84375 C405.43387146 155.23953192 409.91295413 152.99746909 414.54296875 150.48828125 C415.76657104 149.83496826 415.76657104 149.83496826 417.01489258 149.16845703 C424.20700892 145.30762602 431.30683274 141.29227667 438.35546875 137.17578125 C439.34546875 137.83578125 440.33546875 138.49578125 441.35546875 139.17578125 C438.49312974 148.62149997 429.77351583 154.36704092 422.35546875 160.17578125 C421.34097656 160.98273438 420.32648438 161.7896875 419.28125 162.62109375 C399.24520087 178.43394955 377.22790285 191.08882281 353.35546875 200.17578125 C352.56495117 200.47822754 351.77443359 200.78067383 350.95996094 201.09228516 C331.39130925 208.48077124 310.990129 213.76832723 290.35546875 217.17578125 C289.44152344 217.3267627 288.52757812 217.47774414 287.5859375 217.63330078 C259.80022228 221.99009341 230.04920029 222.27488079 202.35546875 217.17578125 C201.38641602 217.00949219 200.41736328 216.84320312 199.41894531 216.671875 C167.12438885 211.09850955 136.80219365 200.34472934 107.35546875 186.17578125 C106.58493164 185.80759277 105.81439453 185.4394043 105.02050781 185.06005859 C82.4496096 174.13748566 61.51684954 159.02191998 43.26953125 141.87890625 C41.03673538 139.80773367 38.7786937 137.8136595 36.46875 135.83203125 C32.36261488 132.25396647 28.61779246 128.41824638 24.91796875 124.42578125 C24.26546143 123.72477295 23.6129541 123.02376465 22.94067383 122.30151367 C14.11649455 112.75265921 6.22637411 102.51147952 -1.64453125 92.17578125 C-8.54195616 94.64262498 -14.90612626 97.7977769 -21.28930664 101.35742188 C-26.08583763 104.00044731 -30.33865689 106.30881246 -35.89453125 105.98828125 C-38.64453125 105.17578125 -38.64453125 105.17578125 -40.64453125 102.17578125 C-40.67602539 99.25976562 -40.67602539 99.25976562 -40.3671875 95.76953125 C-40.25648926 94.50882813 -40.14579102 93.248125 -40.03173828 91.94921875 C-39.47357291 86.50974592 -38.82595256 81.09295293 -38.08203125 75.67578125 C-37.91638672 74.46325684 -37.75074219 73.25073242 -37.58007812 72.00146484 C-37.07146293 68.30758964 -36.55141342 64.61536977 -36.03045654 60.92321777 C-35.59612389 57.83116493 -35.16741734 54.73835375 -34.73876953 51.64550781 C-33.89736875 45.58889031 -33.03828634 39.53495461 -32.16970825 33.48217773 C-31.82103119 31.03801413 -31.47697676 28.59318638 -31.13766479 26.14770508 C-30.65338422 22.66801339 -30.15103256 19.1913615 -29.64453125 15.71484375 C-29.50286026 14.67006866 -29.36118927 13.62529358 -29.21522522 12.54885864 C-28.29028671 6.35640337 -26.8726925 1.56892271 -23.64453125 -3.82421875 C-17.06665116 -7.11315879 -6.45147741 -2.0968451 0 0 Z " fill="#FEA03C" transform="translate(260.64453125,601.82421875)"/>
<path d="M0 0 C15.8384651 6.35247791 30.58711293 17.36312574 43.75 28.0625 C44.60722656 28.74699219 45.46445312 29.43148438 46.34765625 30.13671875 C52.28247458 34.91963142 57.95585398 39.90667989 63.53515625 45.09375 C65.58679121 47.08921788 65.58679121 47.08921788 67.75 48.0625 C67.75 48.7225 67.75 49.3825 67.75 50.0625 C68.34425781 50.31902344 68.93851563 50.57554687 69.55078125 50.83984375 C71.96062253 52.17959565 73.19871988 53.4998243 74.9375 55.625 C77.49174607 58.65647251 80.13655092 61.4469897 83 64.1875 C88.38635723 69.50044861 92.88473003 75.42425393 97.47607422 81.41699219 C99.23383812 83.6874653 101.05544169 85.90390894 102.875 88.125 C124.02930675 114.6213034 140.11269543 145.33442672 151.75 177.0625 C152.08757324 177.98015137 152.42514648 178.89780273 152.77294922 179.84326172 C163.88144499 210.48219863 168.98027988 242.91449118 168.9375 275.4375 C168.93689575 276.28387024 168.9362915 277.13024048 168.93566895 278.0022583 C168.91088267 290.7904651 168.58671748 303.38765209 166.75 316.0625 C166.62109375 316.98530762 166.4921875 317.90811523 166.359375 318.85888672 C161.68556302 351.53770403 152.55879163 384.44491673 137.75 414.0625 C139.41675781 414.80693359 139.41675781 414.80693359 141.1171875 415.56640625 C161.81573225 424.95452515 161.81573225 424.95452515 166.9375 432.125 C167.91657534 435.66473392 167.95933179 437.58567109 166.75 441.0625 C156.68011454 450.18222872 141.3100221 453.96664967 128.75 458.5625 C124.9313973 459.96632738 121.11397961 461.3733549 117.296875 462.78125 C116.33642273 463.13501709 115.37597046 463.48878418 114.38641357 463.85327148 C107.88693668 466.25367519 101.41379174 468.7159367 94.953125 471.21875 C93.25653746 471.87311699 91.55992346 472.52741539 89.86328125 473.18164062 C87.45155047 474.11208492 85.04159373 475.046128 82.63623047 475.99291992 C80.433205 476.85974931 78.22513322 477.71235906 76.015625 478.5625 C75.37892883 478.81793579 74.74223267 479.07337158 74.08624268 479.33654785 C69.84719541 480.9480116 66.26384974 481.29405369 61.75 481.0625 C58.86296114 476.03781659 57.88420244 471.45077316 57.01660156 465.81591797 C56.86825363 464.90463135 56.7199057 463.99334473 56.56706238 463.05444336 C56.08168788 460.05601973 55.61076491 457.05553456 55.140625 454.0546875 C54.8068531 451.96523991 54.47243198 449.87589594 54.13739014 447.78665161 C53.43858518 443.41490256 52.74677795 439.04212036 52.06005859 434.66845703 C51.17897217 429.05974637 50.28186399 423.45374161 49.37970352 417.84838676 C48.68748179 413.53769806 48.00304313 409.22580219 47.32103729 404.91348648 C46.99314097 402.84544358 46.66297571 400.77775912 46.330513 398.7104454 C45.86779899 395.82489533 45.41541312 392.93791244 44.96582031 390.05029297 C44.82667709 389.19513092 44.68753387 388.33996887 44.54417419 387.45889282 C44.42367203 386.67113464 44.30316986 385.88337646 44.17901611 385.07174683 C44.07137562 384.39003859 43.96373512 383.70833035 43.85283279 383.00596428 C43.73569709 380.79218559 44.02993039 379.15593468 44.75 377.0625 C46.71903512 375.14899082 47.98535837 374.15902281 50.73046875 373.8125 C57.28101579 374.55450887 63.41056684 376.28269528 69.68432617 378.24609375 C73.6953375 379.49950582 77.57137678 380.48432572 81.75 381.0625 C81.92873657 380.03757446 81.92873657 380.03757446 82.11108398 378.99194336 C82.84458112 375.62884358 83.87851051 372.45554598 84.97265625 369.19140625 C85.43007592 367.81414778 85.88691934 366.43669783 86.34326172 365.05908203 C86.70287994 363.97605804 86.70287994 363.97605804 87.06976318 362.87115479 C95.61211887 337.03770654 102.89198332 311.05926628 106.75 284.0625 C106.93618896 282.77311523 107.12237793 281.48373047 107.31420898 280.15527344 C108.94869627 267.87913745 109.08933847 255.63951581 109.06567383 243.26904297 C109.06251734 239.83138155 109.08605559 236.39458693 109.11132812 232.95703125 C109.1630727 214.99997318 107.66793422 197.42985357 103.4375 179.9375 C103.22440186 179.03684814 103.01130371 178.13619629 102.79174805 177.20825195 C96.89220669 152.80511835 87.97615997 129.51481993 76.75 107.0625 C76.255 106.0725 75.76 105.0825 75.25 104.0625 C73.07889745 99.3850231 73.07889745 99.3850231 68.75 97.0625 C69.08 96.4025 69.41 95.7425 69.75 95.0625 C68.34765373 92.49708469 66.8954824 90.07612387 65.3125 87.625 C64.85311035 86.9036084 64.3937207 86.1822168 63.92041016 85.43896484 C49.57530972 63.10834229 31.74699526 43.01970142 13.0625 24.25 C12.3617334 23.54456055 11.6609668 22.83912109 10.93896484 22.11230469 C6.93465701 18.12024244 2.83792784 14.32568271 -1.49926758 10.6965332 C-3.38098198 8.94024893 -4.86108587 7.23084354 -6.25 5.0625 C-6.0625 2.375 -6.0625 2.375 -5.25 0.0625 C-3.25 -0.9375 -3.25 -0.9375 0 0 Z " fill="#FE861B" transform="translate(653.25,226.9375)"/>
<path d="M0 0 C337.92 0 675.84 0 1024 0 C1023.67 0.66 1023.34 1.32 1023 2 C517.11 1.505 517.11 1.505 1 1 C1 338.26 1 675.52 1 1023 C338.59 1023 676.18 1023 1024 1023 C1024 1023.33 1024 1023.66 1024 1024 C686.08 1024 348.16 1024 0 1024 C0 686.08 0 348.16 0 0 Z " fill="#D9CBBD" transform="translate(0,0)"/>
<path d="M0 0 C5.63862915 2.5060574 9.72395229 6.67518381 14 11 C16.76821723 13.79427444 19.53977223 16.58520179 22.3125 19.375 C23.03373047 20.10460937 23.75496094 20.83421875 24.49804688 21.5859375 C30.05663754 27.16945458 35.75587782 32.49932249 42 37.3125 C42.99 38.1478125 42.99 38.1478125 44 39 C44 39.66 44 40.32 44 41 C44.598125 41.268125 45.19625 41.53625 45.8125 41.8125 C48.06604393 43.03585242 49.42858036 43.97960332 51 46 C51.6875 48.6875 51.6875 48.6875 52 51 C51.071875 50.0409375 51.071875 50.0409375 50.125 49.0625 C47.70142348 46.63892348 45.18090276 44.34577313 42.625 42.0625 C37.6021761 37.56957283 32.67236815 32.98317575 27.75390625 28.37646484 C24.1099593 24.96485624 20.45142314 21.5707447 16.77148438 18.19799805 C3.45336883 5.97985142 3.45336883 5.97985142 0 2 C0 1.34 0 0.68 0 0 Z " fill="#FEA53D" transform="translate(549,181)"/>
<path d="M0 0 C-2.99592183 3.82459498 -6.47397419 3.84770465 -11.07188416 4.41755676 C-20.58567483 5.44566623 -30.18146819 5.26034917 -39.73706055 5.20581055 C-43.08715312 5.18736425 -46.43697088 5.18530278 -49.78710938 5.18554688 C-51.93229405 5.18063689 -54.07747687 5.17481085 -56.22265625 5.16796875 C-57.21644791 5.16685593 -58.21023956 5.1657431 -59.23414612 5.16459656 C-63.93307473 5.13243593 -68.37913441 4.97227784 -73 4 C-73 3.67 -73 3.34 -73 3 C-71.70602295 2.98018066 -70.4120459 2.96036133 -69.07885742 2.93994141 C-64.182532 2.86267493 -59.28645826 2.77416772 -54.39038086 2.68261719 C-52.28919517 2.64481859 -50.18795548 2.60988997 -48.08666992 2.578125 C-36.7358537 2.40454024 -25.50258264 2.08300122 -14.22807312 0.67959595 C-9.44381332 0.08948711 -4.8225943 -0.08348168 0 0 Z " fill="#FE8A1D" transform="translate(554,816)"/>
<path d="M0 0 C-4.39440742 2.92960495 -8.81727235 3.01914111 -14 3.625 C-15.12108154 3.75616211 -16.24216309 3.88732422 -17.3972168 4.02246094 C-27.54050148 5.07755438 -37.62230268 5.27197304 -47.8125 5.25 C-48.58247314 5.24913391 -49.35244629 5.24826782 -50.14575195 5.24737549 C-63.92595923 5.20726968 -63.92595923 5.20726968 -69 4 C-69 3.67 -69 3.34 -69 3 C-67.76846191 2.97494385 -66.53692383 2.9498877 -65.26806641 2.92407227 C-60.70952507 2.83007388 -56.15113882 2.72983485 -51.59277344 2.62768555 C-49.61787538 2.58430797 -47.64293913 2.542635 -45.66796875 2.50268555 C-42.8332161 2.44505127 -39.99865622 2.3813373 -37.1640625 2.31640625 C-36.27756012 2.29969376 -35.39105774 2.28298126 -34.47769165 2.26576233 C-30.10074845 2.28914789 -30.10074845 2.28914789 -26 1 C-17.44587822 -0.48687524 -8.6462351 -0.09654605 0 0 Z " fill="#FE8C1A" transform="translate(600,779)"/>
<path d="M0 0 C4.90258792 1.62463927 8.77249773 4.40738302 12.9375 7.375 C13.68314209 7.90375732 14.42878418 8.43251465 15.19702148 8.97729492 C21.96618892 13.8484169 28.29512328 19.14288115 34.52099609 24.68408203 C36.62469497 26.55581147 38.75105574 28.40131296 40.875 30.25 C41.91735852 31.16587987 42.95935977 32.08216824 44 33 C43.34 33.66 42.68 34.32 42 35 C40.66102417 34.04956626 39.32894573 33.08940853 38 32.125 C37.2575 31.59132813 36.515 31.05765625 35.75 30.5078125 C35.1725 30.01023437 34.595 29.51265625 34 29 C34 28.34 34 27.68 34 27 C33.4225 26.773125 32.845 26.54625 32.25 26.3125 C30 25 30 25 27.9375 22.375 C27.298125 21.59125 26.65875 20.8075 26 20 C25.01 20 24.02 20 23 20 C23 19.34 23 18.68 23 18 C22.236875 17.71125 21.47375 17.4225 20.6875 17.125 C18 16 18 16 15 14 C15 13.34 15 12.68 15 12 C14.278125 11.731875 13.55625 11.46375 12.8125 11.1875 C7.57094754 8.97440007 3.8171876 6.25343761 0 2 C0 1.34 0 0.68 0 0 Z " fill="#FDA037" transform="translate(673,239)"/>
<path d="M0 0 C0.33 0 0.66 0 1 0 C1 6.6 1 13.2 1 20 C1.33 20 1.66 20 2 20 C2 32.87 2 45.74 2 59 C1.67 59 1.34 59 1 59 C1 49.76 1 40.52 1 31 C0.34 31 -0.32 31 -1 31 C-1 37.27 -1 43.54 -1 50 C-1.33 50 -1.66 50 -2 50 C-2.26567726 33.20919691 -1.71314525 16.70772244 0 0 Z " fill="#FDB962" transform="translate(205,474)"/>
<path d="M0 0 C3.8587045 0.52144655 5.34627841 1.25521933 8 4 C10.09223721 5.57217825 12.21969928 7.08530057 14.35546875 8.59765625 C14.89816406 9.06042969 15.44085937 9.52320313 16 10 C16 10.66 16 11.32 16 12 C16.99 12.33 17.98 12.66 19 13 C19 13.66 19 14.32 19 15 C19.99 15.33 20.98 15.66 22 16 C23.6875 19.0625 23.6875 19.0625 25 22 C22 22 22 22 19.85522461 20.19580078 C19.04577393 19.37063965 18.23632324 18.54547852 17.40234375 17.6953125 C16.51869141 16.80199219 15.63503906 15.90867187 14.72460938 14.98828125 C13.80486328 14.04339844 12.88511719 13.09851563 11.9375 12.125 C11.01388672 11.18785156 10.09027344 10.25070313 9.13867188 9.28515625 C6.75288515 6.86277236 4.37592262 4.43204678 2 2 C1.34 1.34 0.68 0.68 0 0 Z " fill="#FEA53D" transform="translate(656,241)"/>
<path d="M0 0 C0.99 0.66 1.98 1.32 3 2 C1.19985124 7.94049091 -3.51477848 13.97367089 -9 17 C-9.99 16.67 -10.98 16.34 -12 16 C-11 13 -11 13 -8.5625 11.5625 C-5.84333111 9.90447019 -5.10592885 8.91563061 -4 6 C-4.99 6 -5.98 6 -7 6 C-6 3 -6 3 -2.9375 1.3125 C-1.968125 0.879375 -0.99875 0.44625 0 0 Z " fill="#FD9529" transform="translate(699,739)"/>
<path d="M0 0 C3.58119577 3.58119577 2.75102692 9.13316906 3 14 C3.05414062 14.82113281 3.10828125 15.64226562 3.1640625 16.48828125 C3.50284812 25.65089238 1.67772618 35.60519025 -2 44 C-3.26237731 40.21286807 -2.67558873 37.74348067 -2.0625 33.8125 C-1.77052734 31.90404297 -1.77052734 31.90404297 -1.47265625 29.95703125 C-1.31667969 28.98121094 -1.16070313 28.00539063 -1 27 C-0.34 27 0.32 27 1 27 C0.67 18.09 0.34 9.18 0 0 Z " fill="#FE6E08" transform="translate(585,493)"/>
<path d="M0 0 C1.59328125 0.47566406 1.59328125 0.47566406 3.21875 0.9609375 C8.92221448 2.38680362 14.64776054 2.45699313 20.5 2.625 C21.60859375 2.66367187 22.7171875 2.70234375 23.859375 2.7421875 C26.57275797 2.83575243 29.28614661 2.92149483 32 3 C31.67 3.66 31.34 4.32 31 5 C28.54505423 5.37862348 26.22177479 5.61551054 23.75 5.75 C23.03505371 5.79020264 22.32010742 5.83040527 21.58349609 5.87182617 C15.06063295 6.14753184 8.21681891 6.16706148 2 4 C0.6484375 1.91796875 0.6484375 1.91796875 0 0 Z " fill="#FE6C0A" transform="translate(484,683)"/>
<path d="M0 0 C1.2065625 0.0309375 1.2065625 0.0309375 2.4375 0.0625 C-2.93346774 5.73185484 -2.93346774 5.73185484 -6.5625 7.0625 C-7.5525 7.0625 -8.5425 7.0625 -9.5625 7.0625 C-9.5625 7.7225 -9.5625 8.3825 -9.5625 9.0625 C-11.51671035 9.92605778 -13.47601347 10.77809934 -15.4375 11.625 C-16.52804687 12.10066406 -17.61859375 12.57632813 -18.7421875 13.06640625 C-19.67289063 13.39511719 -20.60359375 13.72382812 -21.5625 14.0625 C-22.2225 13.7325 -22.8825 13.4025 -23.5625 13.0625 C-21.4256429 10.73888676 -19.38773175 9.27706585 -16.5859375 7.8359375 C-15.45671875 7.248125 -15.45671875 7.248125 -14.3046875 6.6484375 C-13.52351562 6.24882813 -12.74234375 5.84921875 -11.9375 5.4375 C-10.38202075 4.63434405 -8.82729168 3.82973297 -7.2734375 3.0234375 C-6.58556152 2.67071777 -5.89768555 2.31799805 -5.18896484 1.95458984 C-1.70098217 0.04148737 -1.70098217 0.04148737 0 0 Z " fill="#FD982C" transform="translate(688.5625,745.9375)"/>
<path d="M0 0 C0.33 0 0.66 0 1 0 C1.04957858 4.60813849 1.08580385 9.21612037 1.10986328 13.82446289 C1.11989726 15.39089667 1.13352754 16.95731183 1.15087891 18.52368164 C1.17524225 20.78015753 1.18650916 23.03638494 1.1953125 25.29296875 C1.20563507 25.98899704 1.21595764 26.68502533 1.22659302 27.40214539 C1.22750439 31.38584491 0.7555827 34.41290109 -1 38 C-1.99 37.67 -2.98 37.34 -4 37 C-3.01 36.505 -3.01 36.505 -2 36 C-2.01571045 35.00371582 -2.01571045 35.00371582 -2.03173828 33.98730469 C-2.36544757 9.63075082 -2.36544757 9.63075082 0 0 Z " fill="#FE9D2D" transform="translate(509,162)"/>
<path d="M0 0 C0.66 0.33 1.32 0.66 2 1 C-0.77299208 4.79736798 -3.42636501 7.18827722 -7.4375 9.625 C-8.36433594 10.19476563 -9.29117188 10.76453125 -10.24609375 11.3515625 C-11.15488281 11.89554687 -12.06367187 12.43953125 -13 13 C-13.86109375 13.56074219 -14.7221875 14.12148438 -15.609375 14.69921875 C-18.81795765 16.44506519 -21.40921896 16.21122241 -25 16 C-22.92677345 13.92677345 -21.61359726 13.3261026 -18.9375 12.25 C-14.52182791 10.36369348 -10.75057179 7.95278836 -6.84765625 5.171875 C-5 4 -5 4 -3 4 C-3 3.34 -3 2.68 -3 2 C-2.01 1.34 -1.02 0.68 0 0 Z " fill="#FE9D31" transform="translate(547,285)"/>
<path d="M0 0 C2.125 0.9375 2.125 0.9375 4 2 C3.773125 2.763125 3.54625 3.52625 3.3125 4.3125 C3.209375 5.199375 3.10625 6.08625 3 7 C3.97850195 8.02104551 4.97980427 9.0206121 6 10 C6.1875 12.6875 6.1875 12.6875 6 15 C4.87105124 14.06725891 3.74699124 13.12859878 2.625 12.1875 C1.99851562 11.66542969 1.37203125 11.14335937 0.7265625 10.60546875 C-1 9 -1 9 -3 6 C-2.75 3.375 -2.75 3.375 -2 1 C-1.34 0.67 -0.68 0.34 0 0 Z " fill="#FDAC4B" transform="translate(650,226)"/>
<path d="M0 0 C6.41069287 5.27101414 12.18590512 11.09128152 18 17 C17.67 17.99 17.34 18.98 17 20 C12.51314387 16.1366276 8.13073696 12.24875802 4 8 C3.4225 7.505 2.845 7.01 2.25 6.5 C0.55604291 4.4672515 0.34892641 2.58205543 0 0 Z " fill="#FD9C30" transform="translate(289,726)"/>
<path d="M0 0 C2.375 -0.125 2.375 -0.125 5 0 C5.66 0.66 6.32 1.32 7 2 C6.88605622 7.9250768 5.08818026 10.81674578 1 15 C-1.125 16.9375 -1.125 16.9375 -3 18 C-3.99 17.67 -4.98 17.34 -6 17 C-5.51789063 16.60167969 -5.03578125 16.20335937 -4.5390625 15.79296875 C-3.90742188 15.26316406 -3.27578125 14.73335937 -2.625 14.1875 C-1.68527344 13.40439453 -1.68527344 13.40439453 -0.7265625 12.60546875 C1.62740831 10.41659544 2.90953864 8.72369088 3.3125 5.5 C2.94902388 2.59219106 2.25424122 1.78460763 0 0 Z " fill="#FDA237" transform="translate(328,625)"/>
<path d="M0 0 C5.36362623 0.35825748 8.38928995 3.42036161 12.25 6.8125 C13.20519531 7.61397461 13.20519531 7.61397461 14.1796875 8.43164062 C19.28176039 12.8443909 19.28176039 12.8443909 20 17 C17.5 15.625 17.5 15.625 15 14 C15 13.34 15 12.68 15 12 C14.42378906 11.74089844 13.84757813 11.48179687 13.25390625 11.21484375 C10.82190213 9.90400618 8.99287579 8.40402166 6.9375 6.5625 C6.26589844 5.96566406 5.59429688 5.36882812 4.90234375 4.75390625 C3.2245521 3.20703058 1.59840757 1.62828434 0 0 Z " fill="#FEA840" transform="translate(528,164)"/>
<path d="M0 0 C4.16959138 0.68267869 7.58547515 2.85444571 11.1875 4.9375 C11.82880859 5.29779297 12.47011719 5.65808594 13.13085938 6.02929688 C17.87467617 8.74935233 17.87467617 8.74935233 19 11 C16 12 16 12 14.25 11.375 C11.6347122 9.77676857 9.21361981 7.9840679 6.78125 6.12109375 C4.86277897 4.91363501 3.21297324 4.43191802 1 4 C0.67 2.68 0.34 1.36 0 0 Z " fill="#FDA842" transform="translate(654,228)"/>
<path d="M0 0 C0 0.33 0 0.66 0 1 C-7.26 1 -14.52 1 -22 1 C-15.39930604 -5.60069396 -7.70638777 -3.30273762 0 0 Z " fill="#FE7208" transform="translate(585,633)"/>
<path d="M0 0 C3.55778921 3.55778921 3.95168196 8.64709495 4.125 13.5 C4.08375 14.325 4.0425 15.15 4 16 C4.99 16 5.98 16 7 16 C6.67 17.32 6.34 18.64 6 20 C3 19 3 19 2.05078125 17.28515625 C0.09482942 11.39660287 -0.34860127 6.1844448 0 0 Z " fill="#FDA33C" transform="translate(208,556)"/>
<path d="M0 0 C-1.32 0.33 -2.64 0.66 -4 1 C-4 1.66 -4 2.32 -4 3 C-15.52164009 7.59225513 -15.52164009 7.59225513 -21 7 C-17.74397004 4.2866417 -14.43846872 2.78564147 -10.5 1.25 C-9.3759375 0.80140625 -8.251875 0.3528125 -7.09375 -0.109375 C-4.08998328 -0.97409572 -2.84198054 -1.14236473 0 0 Z " fill="#FE8118" transform="translate(782,684)"/>
<path d="M0 0 C0.33 0 0.66 0 1 0 C1.19569589 2.56211075 1.38180612 5.12432391 1.5625 7.6875 C1.61857422 8.40873047 1.67464844 9.12996094 1.73242188 9.87304688 C2.05523661 14.58614206 2.19748774 18.67986751 0 22.9375 C-1.2771026 25.57152412 -1.60656997 28.11484648 -2 31 C-2.33 31 -2.66 31 -3 31 C-2.30366068 20.6282091 -1.1934991 10.32434658 0 0 Z " fill="#FE952B" transform="translate(762,493)"/>
<path d="M0 0 C0.33 0.99 0.66 1.98 1 3 C-1.43483681 5.66672603 -3.25969405 6.9008646 -6.99291992 7.11352539 C-7.73131104 7.10828857 -8.46970215 7.10305176 -9.23046875 7.09765625 C-10.03291016 7.09443359 -10.83535156 7.09121094 -11.66210938 7.08789062 C-12.49548828 7.07951172 -13.32886719 7.07113281 -14.1875 7.0625 C-15.03248047 7.05798828 -15.87746094 7.05347656 -16.74804688 7.04882812 C-18.83206155 7.03705403 -20.91603977 7.0191189 -23 7 C-23 6.67 -23 6.34 -23 6 C-21.99839844 5.89042969 -20.99679687 5.78085937 -19.96484375 5.66796875 C-9.18596935 4.92992896 -9.18596935 4.92992896 0 0 Z " fill="#FE6907" transform="translate(543,680)"/>
<path d="M0 0 C2 3 2 3 1.64477539 5.31518555 C1.43199951 6.20117432 1.21922363 7.08716309 1 8 C0.8577379 9.98338061 0.754929 11.96983513 0.68359375 13.95703125 C0.64169922 15.06884766 0.59980469 16.18066406 0.55664062 17.32617188 C0.49766602 19.0519043 0.49766602 19.0519043 0.4375 20.8125 C0.39431641 21.98232422 0.35113281 23.15214844 0.30664062 24.35742188 C0.20081721 27.23817031 0.09873175 30.11900123 0 33 C-0.33 33 -0.66 33 -1 33 C-1.02505615 32.29391602 -1.0501123 31.58783203 -1.07592773 30.86035156 C-1.19207369 27.65672491 -1.31471603 24.45337882 -1.4375 21.25 C-1.47681641 20.13882812 -1.51613281 19.02765625 -1.55664062 17.8828125 C-1.59853516 16.81289063 -1.64042969 15.74296875 -1.68359375 14.640625 C-1.72025146 13.65610352 -1.75690918 12.67158203 -1.79467773 11.65722656 C-1.9094818 9.05153213 -1.9094818 9.05153213 -2.60961914 6.81933594 C-3 5 -3 5 -1.5625 2.25 C-1.046875 1.5075 -0.53125 0.765 0 0 Z " fill="#FE891C" transform="translate(340,475)"/>
<path d="M0 0 C0.66 0 1.32 0 2 0 C0.3734847 4.75940556 -2.22253637 8.66614359 -5 12.8125 C-5.45117188 13.50537109 -5.90234375 14.19824219 -6.3671875 14.91210938 C-7.52234147 16.64654913 -8.75538259 18.32859656 -10 20 C-10.66 20 -11.32 20 -12 20 C-10.3734847 15.24059444 -7.77746363 11.33385641 -5 7.1875 C-4.32324219 6.14819336 -4.32324219 6.14819336 -3.6328125 5.08789062 C-2.47765853 3.35345087 -1.24461741 1.67140344 0 0 Z " fill="#FEA537" transform="translate(275,400)"/>
<path d="M0 0 C-14.25443787 7.51597633 -14.25443787 7.51597633 -19.265625 6.57421875 C-19.83796875 6.38472656 -20.4103125 6.19523437 -21 6 C-4.73076923 -1.57692308 -4.73076923 -1.57692308 0 0 Z " fill="#FEA83F" transform="translate(441,280)"/>
<path d="M0 0 C-6.66069811 4.44046541 -15.13157553 5.45394757 -23 5 C-20.30184358 2.30184358 -18.02989622 2.15719389 -14.3125 1.375 C-12.51232422 0.98441406 -12.51232422 0.98441406 -10.67578125 0.5859375 C-7.04773449 0.00760911 -3.66661771 -0.10355018 0 0 Z " fill="#FEA134" transform="translate(483,269)"/>
<path d="M0 0 C7.31110994 -0.3689719 13.21256822 0.18447274 20 3 C20 3.33 20 3.66 20 4 C12.91923749 4.40850553 6.80074041 2.90420731 0 1 C0 0.67 0 0.34 0 0 Z " fill="#FE9223" transform="translate(491,776)"/>
<path d="M0 0 C0 0.66 0 1.32 0 2 C-2.25058029 4.12079476 -4.81701029 5.86572377 -7.3125 7.6875 C-8.00279297 8.21150391 -8.69308594 8.73550781 -9.40429688 9.27539062 C-10.07138672 9.76587891 -10.73847656 10.25636719 -11.42578125 10.76171875 C-12.03848877 11.21506592 -12.65119629 11.66841309 -13.2824707 12.13549805 C-14.13264771 12.56342651 -14.13264771 12.56342651 -15 13 C-15.99 12.67 -16.98 12.34 -18 12 C-15.89674758 10.37380483 -13.79244271 8.74900468 -11.6875 7.125 C-11.09259766 6.66480469 -10.49769531 6.20460938 -9.88476562 5.73046875 C-2.4517663 0 -2.4517663 0 0 0 Z " fill="#FEA53A" transform="translate(360,319)"/>
<path d="M0 0 C-2.83636599 1.89091066 -4.20913229 2.3902577 -7.4375 3 C-9.96378264 3.47875407 -11.80400177 3.88563635 -14.03515625 5.1875 C-16 6 -16 6 -18.25 5.125 C-18.8275 4.75375 -19.405 4.3825 -20 4 C-6.3667426 -1.92482916 -6.3667426 -1.92482916 0 0 Z " fill="#FE901F" transform="translate(648,768)"/>
<path d="M0 0 C1.18613892 0.07069702 1.18613892 0.07069702 2.39624023 0.14282227 C3.67724609 0.21533203 3.67724609 0.21533203 4.98413086 0.28930664 C6.33087891 0.37341797 6.33087891 0.37341797 7.70483398 0.45922852 C8.6065332 0.51143555 9.50823242 0.56364258 10.43725586 0.61743164 C12.67259948 0.74753101 14.90754288 0.88250788 17.14233398 1.02172852 C17.14233398 1.35172852 17.14233398 1.68172852 17.14233398 2.02172852 C7.79975103 3.15171695 -1.46619699 3.12081787 -10.85766602 3.02172852 C-10.85766602 2.69172852 -10.85766602 2.36172852 -10.85766602 2.02172852 C-8.80688477 1.79386393 -6.75610352 1.56599935 -4.70532227 1.33813477 C-2.48695069 0.9582445 -2.26252236 0.02646399 0 0 Z " fill="#FD831B" transform="translate(517.857666015625,685.978271484375)"/>
<path d="M0 0 C4.67594296 0.49448747 7.69673709 2.63012151 11.3125 5.4375 C11.86228516 5.84548828 12.41207031 6.25347656 12.97851562 6.67382812 C14.36252188 7.72773599 15.68706569 8.85877321 17 10 C17 10.66 17 11.32 17 12 C12.66498025 10.52818439 9.28143997 8.2017333 5.6875 5.4375 C4.86282227 4.8197168 4.86282227 4.8197168 4.02148438 4.18945312 C2.65866955 3.1550682 1.32624296 2.08087744 0 1 C0 0.67 0 0.34 0 0 Z " fill="#FE9D2E" transform="translate(370,719)"/>
<path d="M0 0 C1.98 0.99 1.98 0.99 4 2 C4 2.66 4 3.32 4 4 C4.598125 4.226875 5.19625 4.45375 5.8125 4.6875 C8.56351888 6.33811133 9.52484637 8.1972081 11 11 C10.01 11.33 9.02 11.66 8 12 C7.566875 11.38125 7.13375 10.7625 6.6875 10.125 C5.00259517 7.7802755 5.00259517 7.7802755 2 6 C1.34 5.34 0.68 4.68 0 4 C0 2.68 0 1.36 0 0 Z " fill="#FE9C32" transform="translate(717,273)"/>
<path d="M0 0 C-1.42893505 3.58770251 -3.01508697 4.96510596 -6.375 6.8125 C-7.14585937 7.25207031 -7.91671875 7.69164062 -8.7109375 8.14453125 C-11.31101605 9.11623296 -12.43992191 8.95272312 -15 8 C-13.71186658 7.16121545 -12.41936744 6.32913217 -11.125 5.5 C-10.40570312 5.0359375 -9.68640625 4.571875 -8.9453125 4.09375 C-7 3 -7 3 -5 3 C-5 2.34 -5 1.68 -5 1 C-2 0 -2 0 0 0 Z " fill="#FD8F22" transform="translate(657,778)"/>
<path d="M0 0 C0.66 0.33 1.32 0.66 2 1 C-1.41662234 6.10070214 -4.06107964 9.73755415 -10 12 C-8.62968895 6.34746692 -4.32310587 3.4886459 0 0 Z " fill="#FD871C" transform="translate(379,390)"/>
<path d="M0 0 C0.66 0.33 1.32 0.66 2 1 C-0.55959603 3.98619537 -3.3940848 5.48551562 -7 7 C-9.875 7.1875 -9.875 7.1875 -12 7 C-12 6.34 -12 5.68 -12 5 C-10.04578965 4.13644222 -8.08648653 3.28440066 -6.125 2.4375 C-5.03445313 1.96183594 -3.94390625 1.48617187 -2.8203125 0.99609375 C-1.88960937 0.66738281 -0.95890625 0.33867188 0 0 Z " fill="#FE8E21" transform="translate(629,792)"/>
<path d="M0 0 C1.22589844 0.15275391 1.22589844 0.15275391 2.4765625 0.30859375 C3.41628906 0.43427734 3.41628906 0.43427734 4.375 0.5625 C3.385 1.8825 2.395 3.2025 1.375 4.5625 C0.653125 4.35625 -0.06875 4.15 -0.8125 3.9375 C-4.07141585 3.50297789 -5.70804504 4.14569331 -8.625 5.5625 C-6.69358636 0.18213342 -5.66318205 -0.72812341 0 0 Z " fill="#FEA63B" transform="translate(243.625,597.4375)"/>
<path d="M0 0 C0.703125 1.61328125 0.703125 1.61328125 1 4 C-0.328125 6.98046875 -0.328125 6.98046875 -2.25 10.1875 C-2.87390625 11.25355469 -3.4978125 12.31960938 -4.140625 13.41796875 C-6 16 -6 16 -9 17 C-7.51481201 12.95698825 -5.57122002 9.38853744 -3.375 5.6875 C-2.74335938 4.61886719 -2.11171875 3.55023438 -1.4609375 2.44921875 C-0.97882813 1.64097656 -0.49671875 0.83273437 0 0 Z " fill="#FEA538" transform="translate(261,421)"/>
<path d="M0 0 C0 0.33 0 0.66 0 1 C-2.68625454 1.50763865 -5.37368383 2.00627197 -8.0625 2.5 C-8.81466797 2.64308594 -9.56683594 2.78617188 -10.34179688 2.93359375 C-14.97740175 3.776431 -19.2889615 4.15015262 -24 4 C-23.01 3.67 -22.02 3.34 -21 3 C-21 2.34 -21 1.68 -21 1 C-18.62515638 0.83079995 -16.25016522 0.66457137 -13.875 0.5 C-13.20984375 0.45230469 -12.5446875 0.40460938 -11.859375 0.35546875 C-7.89764586 0.08358538 -3.97061445 -0.04947806 0 0 Z " fill="#FEA336" transform="translate(485,202)"/>
<path d="M0 0 C5.67191002 -0.58173436 10.15088384 1.20282563 15 4 C15.33 4.66 15.66 5.32 16 6 C10.03435204 5.49228528 5.36190101 3.61407872 0 1 C0 0.67 0 0.34 0 0 Z " fill="#FE9627" transform="translate(455,765)"/>
<path d="M0 0 C0.33 1.32 0.66 2.64 1 4 C-0.25942386 5.19959375 -1.53295286 6.38439443 -2.8125 7.5625 C-3.87404297 8.55443359 -3.87404297 8.55443359 -4.95703125 9.56640625 C-5.63121094 10.03949219 -6.30539062 10.51257813 -7 11 C-7.99 10.67 -8.98 10.34 -10 10 C-8.72920407 6.1876122 -7.39322116 5.972803 -4 4 C-2.63015802 2.70420353 -1.2848951 1.38007251 0 0 Z " fill="#FB9B35" transform="translate(697,745)"/>
<path d="M0 0 C3.02093215 3.02093215 2.46676834 6.56372072 2.625 10.625 C2.66367187 11.42679688 2.70234375 12.22859375 2.7421875 13.0546875 C2.83653931 15.03607556 2.91936215 17.01800645 3 19 C0.43238452 16.38521048 0.0043655 15.05471424 -0.29296875 11.328125 C-0.27316751 9.96843965 -0.23759202 8.6089066 -0.1875 7.25 C-0.17396484 6.55261719 -0.16042969 5.85523438 -0.14648438 5.13671875 C-0.1112945 3.42414459 -0.05749155 1.71197059 0 0 Z " fill="#FE780D" transform="translate(707,655)"/>
<path d="M0 0 C0 4.0116196 -1.90487068 6.42093858 -4 9.6875 C-4.3815625 10.29400391 -4.763125 10.90050781 -5.15625 11.52539062 C-6.09818472 13.02071199 -7.04831375 14.51086593 -8 16 C-8.70703125 14.35546875 -8.70703125 14.35546875 -9 12 C-7.63671875 9.23828125 -7.63671875 9.23828125 -5.6875 6.3125 C-5.05199219 5.33925781 -4.41648438 4.36601562 -3.76171875 3.36328125 C-2 1 -2 1 0 0 Z " fill="#FEA73E" transform="translate(256,339)"/>
<path d="M0 0 C3.66579598 0.58496744 6.50499144 1.57826707 9.75 3.375 C10.52859375 3.79523437 11.3071875 4.21546875 12.109375 4.6484375 C14 6 14 6 15 9 C9.52067211 7.45454854 4.88570819 4.84456788 0 2 C0 1.34 0 0.68 0 0 Z " fill="#FE9C2E" transform="translate(394,735)"/>
<path d="M0 0 C0.99 0 1.98 0 3 0 C2 3 2 3 0 4 C-1.52148326 4.08372659 -3.04655778 4.10730027 -4.5703125 4.09765625 C-5.46621094 4.09443359 -6.36210938 4.09121094 -7.28515625 4.08789062 C-8.22230469 4.07951172 -9.15945313 4.07113281 -10.125 4.0625 C-11.06988281 4.05798828 -12.01476562 4.05347656 -12.98828125 4.04882812 C-15.32558387 4.03702357 -17.66276061 4.02055759 -20 4 C-20 3.67 -20 3.34 -20 3 C-19.42967041 2.94465088 -18.85934082 2.88930176 -18.27172852 2.83227539 C-15.70151247 2.58026257 -13.13202369 2.32147272 -10.5625 2.0625 C-9.21575195 1.93198242 -9.21575195 1.93198242 -7.84179688 1.79882812 C-6.98779297 1.71181641 -6.13378906 1.62480469 -5.25390625 1.53515625 C-4.06776733 1.41732788 -4.06776733 1.41732788 -2.85766602 1.29711914 C-0.98896652 1.18448501 -0.98896652 1.18448501 0 0 Z " fill="#FE6C05" transform="translate(679,540)"/>
<path d="M0 0 C0.66 0.33 1.32 0.66 2 1 C-0.8718353 4.97638733 -3.76682204 7.51530859 -8 10 C-8.66 10 -9.32 10 -10 10 C-9.8125 8.1875 -9.8125 8.1875 -9 6 C-6.6875 4.4375 -6.6875 4.4375 -4 3 C-2.65368175 2.01755155 -1.31558703 1.02323436 0 0 Z " fill="#FD8D1F" transform="translate(683,758)"/>
<path d="M0 0 C-1.47480097 3.82448388 -3.45294912 5.25042364 -6.9375 7.3125 C-7.81277344 7.84488281 -8.68804687 8.37726563 -9.58984375 8.92578125 C-12 10 -12 10 -15 9 C-12.87885041 7.49428254 -10.75346385 5.99531321 -8.625 4.5 C-8.02171875 4.07074219 -7.4184375 3.64148438 -6.796875 3.19921875 C-2.2265625 0 -2.2265625 0 0 0 Z " fill="#FEA237" transform="translate(376,308)"/>
<path d="M0 0 C0.33 0.474375 0.66 0.94875 1 1.4375 C4.09813267 3.85791615 7.12026792 3.68198917 11 4 C11 4.99 11 5.98 11 7 C3.57142857 7.28571429 3.57142857 7.28571429 0 5 C0 3.35 0 1.7 0 0 Z " fill="#FEA039" transform="translate(509,297)"/>
<path d="M0 0 C0.33 0 0.66 0 1 0 C1.33 3.3 1.66 6.6 2 10 C1.34 10 0.68 10 0 10 C0 14.29 0 18.58 0 23 C-0.66 22.67 -1.32 22.34 -2 22 C-1.5140207 14.6379306 -1.02325928 7.30899482 0 0 Z " fill="#FBB055" transform="translate(222,682)"/>
<path d="M0 0 C-0.33 0.99 -0.66 1.98 -1 3 C-3.8914086 4.1194613 -6.67762612 4.10768197 -9.75 4.0625 C-10.54921875 4.05347656 -11.3484375 4.04445313 -12.171875 4.03515625 C-12.77515625 4.02355469 -13.3784375 4.01195312 -14 4 C-10.07627117 0.07627117 -5.34401044 -0.25447669 0 0 Z " fill="#FD8D20" transform="translate(585,809)"/>
<path d="M0 0 C0.66 0.33 1.32 0.66 2 1 C-4.20440882 7.37675351 -4.20440882 7.37675351 -7 9 C-8.32 8.67 -9.64 8.34 -11 8 C-7.37 5.36 -3.74 2.72 0 0 Z " fill="#FD8D1F" transform="translate(670,768)"/>
<path d="M0 0 C1.65 0.33 3.3 0.66 5 1 C1.98851984 4.47478479 -0.50735835 5.97043629 -5 7 C-7.375 6.625 -7.375 6.625 -9 6 C-8.34 6 -7.68 6 -7 6 C-7 5.34 -7 4.68 -7 4 C-6.030625 3.71125 -5.06125 3.4225 -4.0625 3.125 C-0.89335797 2.35785318 -0.89335797 2.35785318 0 0 Z " fill="#FE9526" transform="translate(656,760)"/>
<path d="M0 0 C0.95003906 0.15339844 1.90007812 0.30679688 2.87890625 0.46484375 C7.54961567 1.13208795 12.22798139 1.34403564 16.9375 1.5625 C17.81212891 1.60568359 18.68675781 1.64886719 19.58789062 1.69335938 C21.72511995 1.79846901 23.86254238 1.89963985 26 2 C26 2.33 26 2.66 26 3 C22.23090076 3.28358537 18.46028244 3.52107447 14.6875 3.75 C13.0797168 3.87181641 13.0797168 3.87181641 11.43945312 3.99609375 C10.41142578 4.05410156 9.38339844 4.11210938 8.32421875 4.171875 C6.9024231 4.2661377 6.9024231 4.2661377 5.4519043 4.36230469 C3 4 3 4 1.16723633 1.98925781 C0.78204834 1.33280273 0.39686035 0.67634766 0 0 Z " fill="#FD8C1B" transform="translate(494,580)"/>
<path d="M0 0 C0.33 0 0.66 0 1 0 C0.48517081 5.852795 -0.45357192 11.3297637 -2 17 C-2.33 17 -2.66 17 -3 17 C-3.25166992 10.70825188 -2.87021796 5.74043592 0 0 Z " fill="#FEA437" transform="translate(213,437)"/>
<path d="M0 0 C1.31225809 3.93677426 0.3393954 5.7794262 -0.9375 9.6875 C-1.50791016 11.45673828 -1.50791016 11.45673828 -2.08984375 13.26171875 C-2.39019531 14.16535156 -2.69054687 15.06898438 -3 16 C-3.33 16 -3.66 16 -4 16 C-4.1799928 10.78020872 -3.97094808 6.92737019 -2 2 C-1.34 2 -0.68 2 0 2 C0 1.34 0 0.68 0 0 Z " fill="#FEA73E" transform="translate(218,420)"/>
<path d="M0 0 C-1.20523048 3.61569144 -2.07185564 3.94669545 -5.3125 5.75 C-6.48232422 6.42289062 -6.48232422 6.42289062 -7.67578125 7.109375 C-10.30300917 8.11611108 -11.40927388 7.97226335 -14 7 C-12.37554381 6.01993141 -10.75041739 5.04097364 -9.125 4.0625 C-8.22007812 3.51722656 -7.31515625 2.97195313 -6.3828125 2.41015625 C-2.31024931 0 -2.31024931 0 0 0 Z " fill="#FEA537" transform="translate(392,299)"/>
<path d="M0 0 C5.56890517 0.47986031 10.67067568 1.29915181 16 3 C16 3.33 16 3.66 16 4 C5.1005291 4.38095238 5.1005291 4.38095238 1 2 C0.67 1.34 0.34 0.68 0 0 Z " fill="#FE9326" transform="translate(432,810)"/>
<path d="M0 0 C5.65020618 0.60108576 10.66164461 2.07528683 16 4 C12.60252747 5.13249084 10.92604978 4.86316721 7.4375 4.25 C5.98150391 4.01023437 5.98150391 4.01023437 4.49609375 3.765625 C2 3 2 3 0 0 Z " fill="#FE9325" transform="translate(415,805)"/>
<path d="M0 0 C1 2 1 2 0.25 4.75 C-0.98251685 7.95454382 -2.40772559 10.9602034 -4 14 C-4.33 14 -4.66 14 -5 14 C-4.58669586 8.00708997 -3.68096635 4.74963401 0 0 Z " fill="#FEA73D" transform="translate(230,387)"/>
<path d="M0 0 C2.31 0 4.62 0 7 0 C7 0.66 7 1.32 7 2 C10.3 2 13.6 2 17 2 C15 4 15 4 11.3125 4.3125 C6.95260367 4.22482384 3.87332363 2.93666181 0 1 C0 0.67 0 0.34 0 0 Z " fill="#FE6E05" transform="translate(561,384)"/>
<path d="M0 0 C0 3.99282941 -1.47808076 5.15331592 -4 8.1875 C-4.7425 9.08855469 -5.485 9.98960937 -6.25 10.91796875 C-6.8275 11.60503906 -7.405 12.29210937 -8 13 C-8.671875 11.2265625 -8.671875 11.2265625 -9 9 C-7.890625 7.1484375 -7.890625 7.1484375 -6.25 5.375 C-5.71890625 4.78460938 -5.1878125 4.19421875 -4.640625 3.5859375 C-3 2 -3 2 0 0 Z " fill="#FEA73E" transform="translate(276,312)"/>
<path d="M0 0 C1.66611905 -0.042721 3.33382885 -0.04063832 5 0 C6 1 6 1 6.11352539 2.94946289 C6.10828857 3.7821167 6.10305176 4.61477051 6.09765625 5.47265625 C6.09443359 6.37177734 6.09121094 7.27089844 6.08789062 8.19726562 C6.07951172 9.14279297 6.07113281 10.08832031 6.0625 11.0625 C6.05798828 12.01189453 6.05347656 12.96128906 6.04882812 13.93945312 C6.0370011 16.29303065 6.02052025 18.64648477 6 21 C5.67 21 5.34 21 5 21 C4.93941406 19.89140625 4.87882812 18.7828125 4.81640625 17.640625 C4.73197049 16.1770718 4.64732401 14.71353075 4.5625 13.25 C4.52318359 12.52039063 4.48386719 11.79078125 4.44335938 11.0390625 C4.21542387 5.92548706 4.21542387 5.92548706 3 1 C2.01 0.67 1.02 0.34 0 0 Z " fill="#FDB95E" transform="translate(501,267)"/>
<path d="M0 0 C0.90105469 0.01804687 1.80210937 0.03609375 2.73046875 0.0546875 C3.41753906 0.07789063 4.10460937 0.10109375 4.8125 0.125 C2.34948577 2.58801423 0.53889964 2.89266521 -2.8125 3.75 C-4.31683594 4.14058594 -4.31683594 4.14058594 -5.8515625 4.5390625 C-6.62242187 4.73242188 -7.39328125 4.92578125 -8.1875 5.125 C-8.1875 4.135 -8.1875 3.145 -8.1875 2.125 C-4.87379 -0.08414 -3.8428979 -0.09981553 0 0 Z " fill="#FE9221" transform="translate(619.1875,773.875)"/>
<path d="M0 0 C3.2826932 1.49076434 5.93077441 3.38620321 8.75 5.625 C9.94882812 6.57246094 9.94882812 6.57246094 11.171875 7.5390625 C11.77515625 8.02117188 12.3784375 8.50328125 13 9 C12.01 9.33 11.02 9.66 10 10 C8.02734375 8.92578125 8.02734375 8.92578125 5.9375 7.3125 C5.24527344 6.79300781 4.55304688 6.27351562 3.83984375 5.73828125 C1.9341303 3.93776642 1.00899957 2.39964147 0 0 Z " fill="#FD982A" transform="translate(315,751)"/>
<path d="M0 0 C-1.49271834 4.6138567 -3.73360028 7.49459542 -7 11 C-7.99 11.33 -8.98 11.66 -10 12 C-8.73050758 7.810675 -4.99190297 0 0 0 Z " fill="#FEA438" transform="translate(288,386)"/>
<path d="M0 0 C-4.82473266 2.92023292 -7.30244005 4.12386 -13 4 C-9.68492165 -0.05176242 -5.01001751 -1.92692981 0 0 Z " fill="#FD8D1D" transform="translate(616,800)"/>
<path d="M0 0 C1.60568666 0.28317926 3.20952047 0.57687791 4.8125 0.875 C6.15248047 1.11863281 6.15248047 1.11863281 7.51953125 1.3671875 C10 2 10 2 13 4 C11.58566794 4.2236337 10.16832382 4.42826476 8.75 4.625 C7.96109375 4.74101563 7.1721875 4.85703125 6.359375 4.9765625 C3.67847541 5.00319395 2.27305911 4.36592084 0 3 C0.66 3 1.32 3 2 3 C2 2.34 2 1.68 2 1 C1.34 0.67 0.68 0.34 0 0 Z " fill="#FDAA44" transform="translate(299,615)"/>
<path d="M0 0 C0.98464547 2.6078186 1.1236295 3.68962214 0.07421875 6.32421875 C-0.38339844 7.10410156 -0.84101563 7.88398438 -1.3125 8.6875 C-1.98732422 9.86892578 -1.98732422 9.86892578 -2.67578125 11.07421875 C-4 13 -4 13 -6 14 C-5.41892368 10.2397015 -4.34800504 7.46964968 -2.4375 4.1875 C-1.98246094 3.39730469 -1.52742187 2.60710937 -1.05859375 1.79296875 C-0.53458984 0.90544922 -0.53458984 0.90544922 0 0 Z " fill="#FEA535" transform="translate(250,440)"/>
<path d="M0 0 C-2.06756277 2.7972908 -3.14440371 3.02692273 -6.6875 3.6875 C-7.780625 3.790625 -8.87375 3.89375 -10 4 C-10.33 3.34 -10.66 2.68 -11 2 C-3.57142857 -1.57142857 -3.57142857 -1.57142857 0 0 Z " fill="#FC7910" transform="translate(810,673)"/>
<path d="M0 0 C1.09651823 3.41139003 0.94215473 6.20655581 0.5625 9.75 C0.40974609 11.22726562 0.40974609 11.22726562 0.25390625 12.734375 C0.12822266 13.85585938 0.12822266 13.85585938 0 15 C-2 13 -2 13 -2.265625 10.72265625 C-2.26046875 9.84480469 -2.2553125 8.96695313 -2.25 8.0625 C-2.25515625 7.18722656 -2.2603125 6.31195312 -2.265625 5.41015625 C-2 3 -2 3 0 0 Z " fill="#FE6903" transform="translate(635,563)"/>
<path d="M0 0 C0.33 0 0.66 0 1 0 C0 8.57142857 0 8.57142857 -1 12 C-1.66 12 -2.32 12 -3 12 C-3.33 12.66 -3.66 13.32 -4 14 C-3.71572583 12.41532272 -3.42225182 10.8322943 -3.125 9.25 C-2.96257812 8.36828125 -2.80015625 7.4865625 -2.6328125 6.578125 C-2.03203736 4.13052256 -1.22002883 2.19400143 0 0 Z " fill="#FEA63A" transform="translate(233,479)"/>
<path d="M0 0 C1.32 0.33 2.64 0.66 4 1 C5.25 7.625 5.25 7.625 3 11 C2.01 7.37 1.02 3.74 0 0 Z " fill="#FE942B" transform="translate(749,377)"/>
<path d="M0 0 C4.0311783 1.3437261 4.80130597 3.45371931 7 7 C7.99 8.485 7.99 8.485 9 10 C6 10 6 10 4.39453125 8.57421875 C3.61142578 7.64029297 3.61142578 7.64029297 2.8125 6.6875 C2.01779297 5.76517578 2.01779297 5.76517578 1.20703125 4.82421875 C0 3 0 3 0 0 Z " fill="#FE6F07" transform="translate(549,371)"/>
<path d="M0 0 C0.99 0.33 1.98 0.66 3 1 C1.88121617 2.17262904 0.75476949 3.33795138 -0.375 4.5 C-1.00148438 5.1496875 -1.62796875 5.799375 -2.2734375 6.46875 C-4 8 -4 8 -6 8 C-6 8.66 -6 9.32 -6 10 C-6.66 9.67 -7.32 9.34 -8 9 C-6.92834431 5.78503292 -6.11623226 4.91537488 -3.625 2.75 C-3.01914062 2.20859375 -2.41328125 1.6671875 -1.7890625 1.109375 C-1.19867188 0.74328125 -0.60828125 0.3771875 0 0 Z " fill="#FEA83E" transform="translate(303,282)"/>
<path d="M0 0 C0.33 0.99 0.66 1.98 1 3 C-0.65 4.65 -2.3 6.3 -4 8 C-4.99 7.67 -5.98 7.34 -7 7 C-3.375 1.125 -3.375 1.125 0 0 Z " fill="#FEA43C" transform="translate(593,243)"/>
<path d="M0 0 C1.16306443 3.54950034 0.92365049 6.55823948 0.5625 10.25 C0.40974609 11.86648438 0.40974609 11.86648438 0.25390625 13.515625 C0.17011719 14.33546875 0.08632812 15.1553125 0 16 C-0.66 16 -1.32 16 -2 16 C-2.20674944 10.21101581 -1.59162079 5.57067277 0 0 Z " fill="#FEAD49" transform="translate(234,603)"/>
<path d="M0 0 C0.33 1.32 0.66 2.64 1 4 C1.66 4 2.32 4 3 4 C3.05422947 5.4370809 3.09289723 6.87475462 3.125 8.3125 C3.14820313 9.11300781 3.17140625 9.91351563 3.1953125 10.73828125 C3 13 3 13 1 16 C0.67 10.72 0.34 5.44 0 0 Z " fill="#FE962D" transform="translate(761,424)"/>
<path d="M0 0 C-0.99 1.485 -0.99 1.485 -2 3 C-4.6015625 3.29296875 -4.6015625 3.29296875 -7.625 3.1875 C-9.12933594 3.14689453 -9.12933594 3.14689453 -10.6640625 3.10546875 C-11.43492187 3.07066406 -12.20578125 3.03585937 -13 3 C-8.54370064 0.02913376 -5.32064558 -0.12092376 0 0 Z " fill="#FE8818" transform="translate(569,813)"/>
<path d="M0 0 C1.32 0.99 2.64 1.98 4 3 C3.67 4.98 3.34 6.96 3 9 C1.68 9.33 0.36 9.66 -1 10 C-0.73958333 7.98177083 -0.47916667 5.96354167 -0.21875 3.9453125 C0.0372485 1.99501656 0.0372485 1.99501656 0 0 Z " fill="#FC7710" transform="translate(817,659)"/>
<path d="M0 0 C0.33 0 0.66 0 1 0 C1.08153933 1.58246707 1.13943557 3.16616273 1.1875 4.75 C1.23970703 6.07257812 1.23970703 6.07257812 1.29296875 7.421875 C0.94923684 10.44671583 -0.00227459 11.75583602 -2 14 C-2.21192221 8.80790596 -1.5912689 4.873261 0 0 Z " fill="#FEA030" transform="translate(222,516)"/>
<path d="M0 0 C0.66 0.33 1.32 0.66 2 1 C1.34 1.66 0.68 2.32 0 3 C0 3.99 0 4.98 0 6 C-1.98 6.99 -1.98 6.99 -4 8 C-4.33 7.01 -4.66 6.02 -5 5 C-3.35 3.35 -1.7 1.7 0 0 Z " fill="#FD891D" transform="translate(387,383)"/>
<path d="M0 0 C5.78706199 5.48247978 5.78706199 5.48247978 7 9 C6.67 9.66 6.34 10.32 6 11 C3.69 8.03 1.38 5.06 -1 2 C-0.67 1.34 -0.34 0.68 0 0 Z " fill="#FE9F33" transform="translate(696,280)"/>
<path d="M0 0 C0.33 0.99 0.66 1.98 1 3 C-1.33333333 5.33333333 -3.66666667 7.66666667 -6 10 C-6.99 9.67 -7.98 9.34 -9 9 C-8.51789063 8.60167969 -8.03578125 8.20335937 -7.5390625 7.79296875 C-6.90742188 7.26316406 -6.27578125 6.73335937 -5.625 6.1875 C-4.99851562 5.66542969 -4.37203125 5.14335938 -3.7265625 4.60546875 C-1.7778952 2.91774261 -1.7778952 2.91774261 0 0 Z " fill="#FE9723" transform="translate(331,633)"/>
<path d="M0 0 C0.33 0 0.66 0 1 0 C1 3.3 1 6.6 1 10 C0.34 10 -0.32 10 -1 10 C-1.33 10.99 -1.66 11.98 -2 13 C-2.19294408 8.17639811 -1.75747614 4.50353262 0 0 Z " fill="#FE770C" transform="translate(813,565)"/>
<path d="M0 0 C0.33 0 0.66 0 1 0 C1.8320582 5.72040011 2.12036664 11.22240116 2 17 C-0.42472438 14.48177725 -0.99254989 13.32466794 -1.07421875 9.765625 C-0.94660156 8.60546875 -0.81898438 7.4453125 -0.6875 6.25 C-0.56761719 5.07953125 -0.44773437 3.9090625 -0.32421875 2.703125 C-0.21722656 1.81109375 -0.11023438 0.9190625 0 0 Z " fill="#FD942D" transform="translate(819,465)"/>
<path d="M0 0 C0.66 0 1.32 0 2 0 C1.40075776 4.19469571 0.42500059 8.00999834 -1 12 C-1.33 12 -1.66 12 -2 12 C-2.17835515 7.45194365 -1.99785435 4.1205746 0 0 Z " fill="#FEA83F" transform="translate(221,407)"/>
<path d="M0 0 C2.10827055 3.16240582 2.33817465 4.50657469 2.625 8.1875 C2.69976563 9.08855469 2.77453125 9.98960937 2.8515625 10.91796875 C2.90054688 11.60503906 2.94953125 12.29210937 3 13 C0 11 0 11 -0.75 7.625 C-0.95630523 4.63357422 -0.99560417 2.76556715 0 0 Z " fill="#FD8E26" transform="translate(814,438)"/>
<path d="M0 0 C0.99 0.33 1.98 0.66 3 1 C-0.96 4.465 -0.96 4.465 -5 8 C-5.66 7.67 -6.32 7.34 -7 7 C-4.66666667 4.66666667 -2.33333333 2.33333333 0 0 Z " fill="#FE7208" transform="translate(592,376)"/>
<path d="M0 0 C2.97246802 2.54782974 4.41535288 5.45340883 6 9 C6 9.66 6 10.32 6 11 C5.34 11 4.68 11 4 11 C0 4.5 0 4.5 0 0 Z " fill="#FC8F24" transform="translate(779,351)"/>
<path d="M0 0 C2.75 -0.25 2.75 -0.25 6 0 C8.375 2 8.375 2 10 4 C7 5 7 5 5.17578125 4.22265625 C3.45052083 3.1484375 1.72526042 2.07421875 0 1 C0 0.67 0 0.34 0 0 Z " fill="#FD770C" transform="translate(802,649)"/>
<path d="M0 0 C-0.33 0.99 -0.66 1.98 -1 3 C-2.45792884 3.05399736 -3.91642712 3.09279177 -5.375 3.125 C-6.18710937 3.14820313 -6.99921875 3.17140625 -7.8359375 3.1953125 C-10 3 -10 3 -12 1 C-10.37512529 0.83211627 -8.75009558 0.66573213 -7.125 0.5 C-6.22007812 0.4071875 -5.31515625 0.314375 -4.3828125 0.21875 C-2 0 -2 0 0 0 Z " fill="#FE6A06" transform="translate(422,647)"/>
<path d="M0 0 C2.475 0.495 2.475 0.495 5 1 C3.515 4.465 3.515 4.465 2 8 C1.34 7.67 0.68 7.34 0 7 C0 4.69 0 2.38 0 0 Z " fill="#FE780D" transform="translate(699,603)"/>
<path d="M0 0 C2.64 0 5.28 0 8 0 C8 0.99 8 1.98 8 3 C5.36 3 2.72 3 0 3 C0 2.01 0 1.02 0 0 Z " fill="#FE770B" transform="translate(716,704)"/>
<path d="M0 0 C0.33 0 0.66 0 1 0 C0.53199289 4.05606165 0.12046792 7.46588679 -2 11 C-2.66 11 -3.32 11 -4 11 C-3.52269162 9.5410574 -3.04308958 8.08286504 -2.5625 6.625 C-2.29566406 5.81289063 -2.02882812 5.00078125 -1.75390625 4.1640625 C-1 2 -1 2 0 0 Z " fill="#FEA436" transform="translate(242,456)"/>
<path d="M0 0 C4.19174654 1.04793663 5.21592961 1.91763635 8 5 C7.01 6.485 7.01 6.485 6 8 C4.02 5.36 2.04 2.72 0 0 Z " fill="#FDA238" transform="translate(688,273)"/>
<path d="M0 0 C3.36704285 -0.2295711 5.41370268 -0.33943529 8.375 1.375 C8.91125 1.91125 9.4475 2.4475 10 3 C10 3.66 10 4.32 10 5 C7.64828869 4.40138258 5.3140622 3.73075648 3 3 C2.67 2.34 2.34 1.68 2 1 C1.34 0.67 0.68 0.34 0 0 Z " fill="#FEA239" transform="translate(517,158)"/>
<path d="M0 0 C-1 3 -1 3 -4 5 C-6.6875 5.125 -6.6875 5.125 -9 5 C-6.45523312 2.20075644 -3.92372883 0 0 0 Z " fill="#FD8C1F" transform="translate(641,787)"/>
<path d="M0 0 C1.53166168 4.08443115 0.63081652 7.79455657 0 12 C-0.99 12 -1.98 12 -3 12 C-2.68950274 10.56206608 -2.3765224 9.1246682 -2.0625 7.6875 C-1.88847656 6.88699219 -1.71445312 6.08648438 -1.53515625 5.26171875 C-1 3 -1 3 0 0 Z " fill="#FE8F24" transform="translate(743,582)"/>
<path d="M0 0 C0.33 0 0.66 0 1 0 C1 2.97 1 5.94 1 9 C0.01 9.33 -0.98 9.66 -2 10 C-1.125 2.25 -1.125 2.25 0 0 Z " fill="#FD7910" transform="translate(809,582)"/>
<path d="M0 0 C0.33 0 0.66 0 1 0 C2.28571429 7.42857143 2.28571429 7.42857143 1 11 C0.34 11 -0.32 11 -1 11 C-1.33 11.66 -1.66 12.32 -2 13 C-1.34 8.71 -0.68 4.42 0 0 Z " fill="#FE9229" transform="translate(758,524)"/>
<path d="M0 0 C0 4.24645065 -1.81750806 6.38524772 -4 10 C-4.6875 8.3125 -4.6875 8.3125 -5 6 C-2.73846154 1.36923077 -2.73846154 1.36923077 0 0 Z " fill="#FEA740" transform="translate(244,359)"/>
<path d="M0 0 C1.98 0.99 3.96 1.98 6 3 C6 4.98 6 6.96 6 9 C3.72494996 6.83328568 1.76424908 4.60436769 0 2 C0 1.34 0 0.68 0 0 Z " fill="#FD9E35" transform="translate(712,303)"/>
<path d="M0 0 C-3.85756507 2.15305957 -6.55129785 3.39253254 -11 3 C-10 1 -10 1 -6.625 -0.1875 C-3 -1 -3 -1 0 0 Z " fill="#FE9F2F" transform="translate(441,280)"/>
<path d="M0 0 C5.53846154 0.61538462 5.53846154 0.61538462 7.875 2.5625 C8.431875 3.2740625 8.431875 3.2740625 9 4 C8.01 4.495 8.01 4.495 7 5 C4.5249829 3.88568235 2.32116581 2.41849022 0 1 C0 0.67 0 0.34 0 0 Z " fill="#FE9929" transform="translate(411,745)"/>
<path d="M0 0 C-1.32 0.33 -2.64 0.66 -4 1 C-4 1.66 -4 2.32 -4 3 C-5.98 3 -7.96 3 -10 3 C-6.81859267 -0.48439851 -4.56758339 -1.41752588 0 0 Z " fill="#FE720A" transform="translate(782,684)"/>
<path d="M0 0 C0.33 0 0.66 0 1 0 C1.33 3.3 1.66 6.6 2 10 C1.34 10 0.68 10 0 10 C0 11.65 0 13.3 0 15 C-0.66 14.67 -1.32 14.34 -2 14 C-1.34 9.38 -0.68 4.76 0 0 Z " fill="#FDB458" transform="translate(224,666)"/>
<path d="M0 0 C0.33 0 0.66 0 1 0 C1.22134176 2.12368444 1.42670007 4.24904024 1.625 6.375 C1.74101563 7.55835938 1.85703125 8.74171875 1.9765625 9.9609375 C1.98429688 10.96382812 1.99203125 11.96671875 2 13 C1.34 13.66 0.68 14.32 0 15 C-1.09651823 11.58860997 -0.94215473 8.79344419 -0.5625 5.25 C-0.46066406 4.26515625 -0.35882812 3.2803125 -0.25390625 2.265625 C-0.17011719 1.51796875 -0.08632813 0.7703125 0 0 Z " fill="#FD881C" transform="translate(635,567)"/>
<path d="M0 0 C0 0.66 0 1.32 0 2 C1.65 1.67 3.3 1.34 5 1 C4.67 1.66 4.34 2.32 4 3 C1.125 3.75 1.125 3.75 -2 4 C-2.99 3.34 -3.98 2.68 -5 2 C-2 0 -2 0 0 0 Z " fill="#FE881D" transform="translate(346,472)"/>
<path d="M0 0 C0.33 0 0.66 0 1 0 C0.51171875 6.0546875 0.51171875 6.0546875 0 8 C-0.99 8.66 -1.98 9.32 -3 10 C-2.25 3.375 -2.25 3.375 0 0 Z " fill="#FEA437" transform="translate(237,468)"/>
<path d="M0 0 C0.33 1.32 0.66 2.64 1 4 C1.66 4 2.32 4 3 4 C2.25 5.9375 2.25 5.9375 1 8 C-1.125 8.75 -1.125 8.75 -3 9 C-3 8.01 -3 7.02 -3 6 C-2.34 6 -1.68 6 -1 6 C-0.67 4.02 -0.34 2.04 0 0 Z " fill="#FE871B" transform="translate(387,450)"/>
<path d="M0 0 C0.625 1.8125 0.625 1.8125 1 4 C0.01 5.485 0.01 5.485 -1 7 C-1.66 7 -2.32 7 -3 7 C-3.33 7.66 -3.66 8.32 -4 9 C-3.38461538 3.46153846 -3.38461538 3.46153846 -1.4375 1.125 C-0.963125 0.75375 -0.48875 0.3825 0 0 Z " fill="#FE710A" transform="translate(639,429)"/>
<path d="M0 0 C1.90318884 2.85478326 2.4619099 4.41941308 3.125 7.6875 C3.29257812 8.49574219 3.46015625 9.30398438 3.6328125 10.13671875 C3.75398437 10.75160156 3.87515625 11.36648438 4 12 C3.34 10.68 2.68 9.36 2 8 C1.34 8 0.68 8 0 8 C0 5.36 0 2.72 0 0 Z " fill="#FC912C" transform="translate(808,416)"/>
<path d="M0 0 C0.66 1.32 1.32 2.64 2 4 C0.68 5.65 -0.64 7.3 -2 9 C-2.99 8.67 -3.98 8.34 -5 8 C-4.360625 7.236875 -3.72125 6.47375 -3.0625 5.6875 C-0.85767219 3.11753287 -0.85767219 3.11753287 0 0 Z " fill="#FEA338" transform="translate(600,233)"/>
<path d="M0 0 C-2 2 -2 2 -3.9453125 2.1953125 C-5.96354167 2.13020833 -7.98177083 2.06510417 -10 2 C-6.80505194 -1.19494806 -4.22040044 -1.35655728 0 0 Z " fill="#FE8A1B" transform="translate(596,807)"/>
<path d="M0 0 C2.97 0.33 5.94 0.66 9 1 C8.01 2.32 7.02 3.64 6 5 C3.5625 4.1875 3.5625 4.1875 1 3 C0.67 2.01 0.34 1.02 0 0 Z " fill="#FEB251" transform="translate(239,597)"/>
<path d="M0 0 C2.1875 0.3125 2.1875 0.3125 4 1 C2.75 2.5625 2.75 2.5625 1 4 C-1.1875 3.6875 -1.1875 3.6875 -3 3 C-1.75 1.4375 -1.75 1.4375 0 0 Z " fill="#FE9120" transform="translate(676,752)"/>
<path d="M0 0 C0.99 0.66 1.98 1.32 3 2 C2.34 3.65 1.68 5.3 1 7 C0.67 6.34 0.34 5.68 0 5 C-0.66 4.67 -1.32 4.34 -2 4 C-2 3.01 -2 2.02 -2 1 C-1.34 0.67 -0.68 0.34 0 0 Z " fill="#FCA43E" transform="translate(699,739)"/>
<path d="M0 0 C2.875 0.3125 2.875 0.3125 6 1 C6.66 1.99 7.32 2.98 8 4 C2.25 3.125 2.25 3.125 0 2 C0 1.34 0 0.68 0 0 Z " fill="#FE7107" transform="translate(478,575)"/>
<path d="M0 0 C0.33 0 0.66 0 1 0 C1.33 3.63 1.66 7.26 2 11 C1.01 11.33 0.02 11.66 -1 12 C-0.67 8.04 -0.34 4.08 0 0 Z " fill="#FEBB63" transform="translate(207,459)"/>
<path d="M0 0 C0 3 0 3 -2.5 5.6875 C-3.325 6.450625 -4.15 7.21375 -5 8 C-4.45773019 4.20411134 -2.79872437 2.52788007 0 0 Z " fill="#FEA83C" transform="translate(263,329)"/>
<path d="M0 0 C2.64752004 2.57784846 4.94432065 4.91648098 7 8 C4.13275314 7.42655063 3.1385485 7.1385485 1 5 C1 4.34 1 3.68 1 3 C0.67 2.01 0.34 1.02 0 0 Z " fill="#FD9E36" transform="translate(737,293)"/>
<path d="M0 0 C0.66 0.33 1.32 0.66 2 1 C0.68 2.65 -0.64 4.3 -2 6 C-2.99 5.67 -3.98 5.34 -5 5 C-4 2 -4 2 -2.0625 0.75 C-1.381875 0.5025 -0.70125 0.255 0 0 Z " fill="#FD8A1A" transform="translate(692,750)"/>
<path d="M0 0 C3.25543229 0.34879632 4.01873107 1.02133261 6.25 3.5625 C6.8275 4.366875 7.405 5.17125 8 6 C7.67 6.66 7.34 7.32 7 8 C5.83035398 6.8572081 4.66435444 5.71068285 3.5 4.5625 C2.8503125 3.92441406 2.200625 3.28632812 1.53125 2.62890625 C0 1 0 1 0 0 Z " fill="#FE6A03" transform="translate(643,592)"/>
<path d="M0 0 C0.33 0 0.66 0 1 0 C0.67 3.96 0.34 7.92 0 12 C-0.33 12 -0.66 12 -1 12 C-1.33 9.03 -1.66 6.06 -2 3 C-1.34 3 -0.68 3 0 3 C0 2.01 0 1.02 0 0 Z " fill="#FD972F" transform="translate(818,544)"/>
<path d="M0 0 C4.67692308 1.47692308 4.67692308 1.47692308 6.3125 4.125 C6.539375 4.74375 6.76625 5.3625 7 6 C4.69 5.01 2.38 4.02 0 3 C0 2.01 0 1.02 0 0 Z " fill="#FD851A" transform="translate(679,472)"/>
<path d="M0 0 C0.33 1.32 0.66 2.64 1 4 C0.34 4 -0.32 4 -1 4 C-1 4.66 -1 5.32 -1 6 C-2.32 5.67 -3.64 5.34 -5 5 C-3.35 3.35 -1.7 1.7 0 0 Z " fill="#FE7109" transform="translate(650,418)"/>
<path d="M0 0 C0.33 0.99 0.66 1.98 1 3 C1.66 3 2.32 3 3 3 C2.67 5.64 2.34 8.28 2 11 C1.67 11 1.34 11 1 11 C0.67 7.37 0.34 3.74 0 0 Z " fill="#FE9A32" transform="translate(759,412)"/>
<path d="M0 0 C0.66 0 1.32 0 2 0 C1.8125 1.875 1.8125 1.875 1 4 C-1.5625 5.25 -1.5625 5.25 -4 6 C-4 5.34 -4 4.68 -4 4 C-3.34 4 -2.68 4 -2 4 C-1.34 2.68 -0.68 1.36 0 0 Z " fill="#FE8A1F" transform="translate(404,364)"/>
<path d="M0 0 C-1.15173355 2.46800047 -2.04783565 4.04783565 -4 6 C-4.99 5.67 -5.98 5.34 -7 5 C-2.25 0 -2.25 0 0 0 Z " fill="#FE9F2E" transform="translate(329,343)"/>
<path d="M0 0 C-1.15173355 2.46800047 -2.04783565 4.04783565 -4 6 C-4.99 5.67 -5.98 5.34 -7 5 C-2.25 0 -2.25 0 0 0 Z " fill="#FDA035" transform="translate(572,265)"/>
<path d="M0 0 C0.33 0.66 0.66 1.32 1 2 C1.99 2.33 2.98 2.66 4 3 C4 5 4 7 4 9 C0 4.5 0 4.5 0 0 Z " fill="#FEA63D" transform="translate(683,264)"/>
<path d="M0 0 C-1.15173355 2.46800047 -2.04783565 4.04783565 -4 6 C-4.99 5.67 -5.98 5.34 -7 5 C-2.25 0 -2.25 0 0 0 Z " fill="#FE9C2B" transform="translate(579,258)"/>
<path d="M0 0 C4 1 4 1 4 1 Z " fill="#F7A142" transform="translate(490,823)"/>
<path d="M0 0 C1 4 1 4 1 4 Z " fill="#F9B35C" transform="translate(201,508)"/>
<path d="M0 0 C1 4 1 4 1 4 Z " fill="#F68B25" transform="translate(823,492)"/>
<path d="M0 0 C1 4 1 4 1 4 Z " fill="#FFB152" transform="translate(504,273)"/>
<path d="M0 0 C0.66 0 1.32 0 2 0 C1.67 0.66 1.34 1.32 1 2 C0.67 1.34 0.34 0.68 0 0 Z " fill="#F7A74A" transform="translate(355,782)"/>
<path d="" fill="#FD9025" transform="translate(0,0)"/>
<path d="" fill="#FF8014" transform="translate(0,0)"/>
<path d="M0 0 C3 1 3 1 3 1 Z " fill="#FBB155" transform="translate(309,616)"/>
<path d="M0 0 C3 1 3 1 3 1 Z " fill="#FB8011" transform="translate(536,576)"/>
<path d="" fill="#FE9027" transform="translate(0,0)"/>
<path d="" fill="#FE9227" transform="translate(0,0)"/>
<path d="" fill="#F8B561" transform="translate(0,0)"/>
<path d="M0 0 C3 1 3 1 3 1 Z " fill="#FD8920" transform="translate(520,328)"/>
<path d="M0 0 C2 1 2 1 2 1 Z " fill="#F69D3F" transform="translate(516,823)"/>
<path d="M0 0 C2 1 2 1 2 1 Z " fill="#F6AA4E" transform="translate(336,771)"/>
<path d="" fill="#FB8F23" transform="translate(0,0)"/>
<path d="M0 0 C2 1 2 1 2 1 Z " fill="#F9B257" transform="translate(284,608)"/>
<path d="M0 0 C2 1 2 1 2 1 Z " fill="#FA8E24" transform="translate(709,600)"/>
<path d="" fill="#FF881B" transform="translate(0,0)"/>
<path d="M0 0 C2 1 2 1 2 1 Z " fill="#FB8216" transform="translate(552,568)"/>
<path d="" fill="#FF8519" transform="translate(0,0)"/>
<path d="M0 0 C2 1 2 1 2 1 Z " fill="#FE800F" transform="translate(559,562)"/>
<path d="M0 0 C2 1 2 1 2 1 Z " fill="#FF7E12" transform="translate(568,552)"/>
<path d="" fill="#F68A21" transform="translate(0,0)"/>
<path d="M0 0 C2 1 2 1 2 1 Z " fill="#FD8012" transform="translate(568,469)"/>
<path d="" fill="#FF891B" transform="translate(0,0)"/>
<path d="M0 0 C2 1 2 1 2 1 Z " fill="#FE8112" transform="translate(523,438)"/>
<path d="M0 0 C2 1 2 1 2 1 Z " fill="#FF8212" transform="translate(513,437)"/>
<path d="" fill="#FF8A1E" transform="translate(0,0)"/>
<path d="" fill="#FD972E" transform="translate(0,0)"/>
<path d="" fill="#F39331" transform="translate(0,0)"/>
<path d="M0 0 C2 1 2 1 2 1 Z " fill="#F88821" transform="translate(609,360)"/>
<path d="M0 0 C2 1 2 1 2 1 Z " fill="#FD932A" transform="translate(411,360)"/>
<path d="" fill="#FDA03D" transform="translate(0,0)"/>
<path d="M0 0 C2 1 2 1 2 1 Z " fill="#FBA03C" transform="translate(730,339)"/>
<path d="M0 0 C2 1 2 1 2 1 Z " fill="#FE8B22" transform="translate(509,328)"/>
<path d="M0 0 C2 1 2 1 2 1 Z " fill="#FDA746" transform="translate(524,303)"/>
<path d="M0 0 C2 1 2 1 2 1 Z " fill="#F5AD54" transform="translate(654,226)"/>
<path d="" fill="#F4A03F" transform="translate(0,0)"/>
<path d="" fill="#F7A041" transform="translate(0,0)"/>
<path d="" fill="#F7A140" transform="translate(0,0)"/>
<path d="" fill="#F69F3F" transform="translate(0,0)"/>
<path d="" fill="#F7A140" transform="translate(0,0)"/>
<path d="" fill="#F6A040" transform="translate(0,0)"/>
<path d="" fill="#F7A23F" transform="translate(0,0)"/>
<path d="" fill="#F9A343" transform="translate(0,0)"/>
<path d="" fill="#F8A244" transform="translate(0,0)"/>
<path d="" fill="#F6A041" transform="translate(0,0)"/>
<path d="" fill="#F7A547" transform="translate(0,0)"/>
<path d="" fill="#F8A03F" transform="translate(0,0)"/>
<path d="" fill="#F79F3C" transform="translate(0,0)"/>
<path d="" fill="#F9A54A" transform="translate(0,0)"/>
<path d="" fill="#F69E3C" transform="translate(0,0)"/>
<path d="" fill="#F6A84C" transform="translate(0,0)"/>
<path d="" fill="#F8A549" transform="translate(0,0)"/>
<path d="" fill="#F7A748" transform="translate(0,0)"/>
<path d="" fill="#F59F3F" transform="translate(0,0)"/>
<path d="" fill="#F6A548" transform="translate(0,0)"/>
<path d="" fill="#F69D3D" transform="translate(0,0)"/>
<path d="" fill="#F7A548" transform="translate(0,0)"/>
<path d="" fill="#F59F3B" transform="translate(0,0)"/>
<path d="" fill="#F7A94F" transform="translate(0,0)"/>
<path d="" fill="#F6A84D" transform="translate(0,0)"/>
<path d="" fill="#F6A444" transform="translate(0,0)"/>
<path d="" fill="#F6A74A" transform="translate(0,0)"/>
<path d="" fill="#FFA73F" transform="translate(0,0)"/>
<path d="" fill="#FFA744" transform="translate(0,0)"/>
<path d="" fill="#FFA740" transform="translate(0,0)"/>
<path d="" fill="#FDA540" transform="translate(0,0)"/>
<path d="" fill="#FAA341" transform="translate(0,0)"/>
<path d="" fill="#F69D38" transform="translate(0,0)"/>
<path d="" fill="#FEA541" transform="translate(0,0)"/>
<path d="" fill="#FBA73F" transform="translate(0,0)"/>
<path d="" fill="#F69F3A" transform="translate(0,0)"/>
<path d="" fill="#FFAA48" transform="translate(0,0)"/>
<path d="" fill="#FCA743" transform="translate(0,0)"/>
<path d="" fill="#F9A642" transform="translate(0,0)"/>
<path d="" fill="#F6AA50" transform="translate(0,0)"/>
<path d="" fill="#FAA544" transform="translate(0,0)"/>
<path d="" fill="#F69F3D" transform="translate(0,0)"/>
<path d="" fill="#FEAC4C" transform="translate(0,0)"/>
<path d="" fill="#F7AC4F" transform="translate(0,0)"/>
<path d="" fill="#FAB052" transform="translate(0,0)"/>
<path d="" fill="#F1AC5A" transform="translate(0,0)"/>
<path d="" fill="#F8B15B" transform="translate(0,0)"/>
<path d="" fill="#FD871D" transform="translate(0,0)"/>
<path d="" fill="#FBB04E" transform="translate(0,0)"/>
<path d="" fill="#FE881C" transform="translate(0,0)"/>
<path d="" fill="#FD9125" transform="translate(0,0)"/>
<path d="" fill="#FC8317" transform="translate(0,0)"/>
<path d="" fill="#FF9125" transform="translate(0,0)"/>
<path d="" fill="#FE8519" transform="translate(0,0)"/>
<path d="" fill="#FF8E24" transform="translate(0,0)"/>
<path d="" fill="#FE8317" transform="translate(0,0)"/>
<path d="" fill="#FD8D25" transform="translate(0,0)"/>
<path d="" fill="#EE8821" transform="translate(0,0)"/>
<path d="" fill="#F48319" transform="translate(0,0)"/>
<path d="" fill="#FD871E" transform="translate(0,0)"/>
<path d="" fill="#FF8F25" transform="translate(0,0)"/>
<path d="" fill="#FF8517" transform="translate(0,0)"/>
<path d="" fill="#FA8D1F" transform="translate(0,0)"/>
<path d="" fill="#FB8119" transform="translate(0,0)"/>
<path d="" fill="#FB8316" transform="translate(0,0)"/>
<path d="" fill="#FF8214" transform="translate(0,0)"/>
<path d="" fill="#FF8115" transform="translate(0,0)"/>
<path d="" fill="#FF9229" transform="translate(0,0)"/>
<path d="" fill="#FD8417" transform="translate(0,0)"/>
<path d="" fill="#FF8E22" transform="translate(0,0)"/>
<path d="" fill="#FE7F11" transform="translate(0,0)"/>
<path d="" fill="#FE8317" transform="translate(0,0)"/>
<path d="" fill="#FE8314" transform="translate(0,0)"/>
<path d="" fill="#F6841D" transform="translate(0,0)"/>
<path d="" fill="#F27D1A" transform="translate(0,0)"/>
<path d="" fill="#FE962C" transform="translate(0,0)"/>
<path d="" fill="#FA8817" transform="translate(0,0)"/>
<path d="" fill="#FE8B25" transform="translate(0,0)"/>
<path d="" fill="#FAB256" transform="translate(0,0)"/>
<path d="" fill="#FE9223" transform="translate(0,0)"/>
<path d="" fill="#FF9024" transform="translate(0,0)"/>
<path d="" fill="#FBB861" transform="translate(0,0)"/>
<path d="" fill="#FFB95D" transform="translate(0,0)"/>
<path d="" fill="#FB8C22" transform="translate(0,0)"/>
<path d="" fill="#FE8B1D" transform="translate(0,0)"/>
<path d="" fill="#FE8011" transform="translate(0,0)"/>
<path d="" fill="#FC7D10" transform="translate(0,0)"/>
<path d="" fill="#F8B359" transform="translate(0,0)"/>
<path d="" fill="#FF8011" transform="translate(0,0)"/>
<path d="" fill="#FF881A" transform="translate(0,0)"/>
<path d="" fill="#F9B35D" transform="translate(0,0)"/>
<path d="" fill="#FD8113" transform="translate(0,0)"/>
<path d="" fill="#FE7F0E" transform="translate(0,0)"/>
<path d="" fill="#FF8619" transform="translate(0,0)"/>
<path d="" fill="#FC8116" transform="translate(0,0)"/>
<path d="" fill="#FAB55B" transform="translate(0,0)"/>
<path d="" fill="#FF891D" transform="translate(0,0)"/>
<path d="" fill="#FF8D20" transform="translate(0,0)"/>
<path d="" fill="#FF8317" transform="translate(0,0)"/>
<path d="" fill="#FC8415" transform="translate(0,0)"/>
<path d="" fill="#FAB45D" transform="translate(0,0)"/>
<path d="" fill="#FF8F27" transform="translate(0,0)"/>
<path d="" fill="#FB8417" transform="translate(0,0)"/>
<path d="" fill="#FE8314" transform="translate(0,0)"/>
<path d="" fill="#F97F13" transform="translate(0,0)"/>
<path d="" fill="#FCB45D" transform="translate(0,0)"/>
<path d="" fill="#FF8011" transform="translate(0,0)"/>
<path d="" fill="#FE8111" transform="translate(0,0)"/>
<path d="" fill="#FD8516" transform="translate(0,0)"/>
<path d="" fill="#FCB35C" transform="translate(0,0)"/>
<path d="" fill="#FE8616" transform="translate(0,0)"/>
<path d="" fill="#F48B24" transform="translate(0,0)"/>
<path d="" fill="#F68A25" transform="translate(0,0)"/>
<path d="" fill="#FAB35C" transform="translate(0,0)"/>
<path d="" fill="#F98D25" transform="translate(0,0)"/>
<path d="" fill="#FD912A" transform="translate(0,0)"/>
<path d="" fill="#FBB45A" transform="translate(0,0)"/>
<path d="" fill="#F88E29" transform="translate(0,0)"/>
<path d="" fill="#FE9329" transform="translate(0,0)"/>
<path d="" fill="#F48B24" transform="translate(0,0)"/>
<path d="" fill="#FCB660" transform="translate(0,0)"/>
<path d="" fill="#FC8314" transform="translate(0,0)"/>
<path d="" fill="#F48D29" transform="translate(0,0)"/>
<path d="" fill="#FD8419" transform="translate(0,0)"/>
<path d="" fill="#FA871C" transform="translate(0,0)"/>
<path d="" fill="#FF9329" transform="translate(0,0)"/>
<path d="" fill="#FC942C" transform="translate(0,0)"/>
<path d="" fill="#FE9227" transform="translate(0,0)"/>
<path d="" fill="#FF8115" transform="translate(0,0)"/>
<path d="" fill="#FC8216" transform="translate(0,0)"/>
<path d="" fill="#FB8017" transform="translate(0,0)"/>
<path d="" fill="#FD8313" transform="translate(0,0)"/>
<path d="" fill="#FF942A" transform="translate(0,0)"/>
<path d="" fill="#FD8B20" transform="translate(0,0)"/>
<path d="" fill="#FC8B20" transform="translate(0,0)"/>
<path d="" fill="#FC8B20" transform="translate(0,0)"/>
<path d="" fill="#FD8212" transform="translate(0,0)"/>
<path d="" fill="#FE8314" transform="translate(0,0)"/>
<path d="" fill="#FF952E" transform="translate(0,0)"/>
<path d="" fill="#FE932A" transform="translate(0,0)"/>
<path d="" fill="#FD7D0F" transform="translate(0,0)"/>
<path d="" fill="#F8B35F" transform="translate(0,0)"/>
<path d="" fill="#FF8A1C" transform="translate(0,0)"/>
<path d="" fill="#FE8C1B" transform="translate(0,0)"/>
<path d="" fill="#FD7F12" transform="translate(0,0)"/>
<path d="" fill="#FF8311" transform="translate(0,0)"/>
<path d="" fill="#FE8113" transform="translate(0,0)"/>
<path d="" fill="#FE962E" transform="translate(0,0)"/>
<path d="" fill="#FBB560" transform="translate(0,0)"/>
<path d="" fill="#FFB45D" transform="translate(0,0)"/>
<path d="" fill="#FDB25A" transform="translate(0,0)"/>
<path d="" fill="#FC9029" transform="translate(0,0)"/>
<path d="" fill="#FCB45B" transform="translate(0,0)"/>
<path d="" fill="#F18F2B" transform="translate(0,0)"/>
<path d="" fill="#FAB65F" transform="translate(0,0)"/>
<path d="" fill="#FD9933" transform="translate(0,0)"/>
<path d="" fill="#FDB35A" transform="translate(0,0)"/>
<path d="" fill="#FD9933" transform="translate(0,0)"/>
<path d="" fill="#FD9631" transform="translate(0,0)"/>
<path d="" fill="#FAB55F" transform="translate(0,0)"/>
<path d="" fill="#FE952E" transform="translate(0,0)"/>
<path d="" fill="#FBB45F" transform="translate(0,0)"/>
<path d="" fill="#FB952D" transform="translate(0,0)"/>
<path d="" fill="#FC9B37" transform="translate(0,0)"/>
<path d="" fill="#FE9C35" transform="translate(0,0)"/>
<path d="" fill="#FE9629" transform="translate(0,0)"/>
<path d="" fill="#FF8417" transform="translate(0,0)"/>
<path d="" fill="#FF8213" transform="translate(0,0)"/>
<path d="" fill="#FD8214" transform="translate(0,0)"/>
<path d="" fill="#F7912E" transform="translate(0,0)"/>
<path d="" fill="#FE9C37" transform="translate(0,0)"/>
<path d="" fill="#FD9D39" transform="translate(0,0)"/>
<path d="" fill="#FF8319" transform="translate(0,0)"/>
<path d="" fill="#FB8419" transform="translate(0,0)"/>
<path d="" fill="#FE8116" transform="translate(0,0)"/>
<path d="" fill="#FEB357" transform="translate(0,0)"/>
<path d="" fill="#FD912B" transform="translate(0,0)"/>
<path d="" fill="#FB9C35" transform="translate(0,0)"/>
<path d="" fill="#FD9E36" transform="translate(0,0)"/>
<path d="" fill="#FA9D38" transform="translate(0,0)"/>
<path d="" fill="#FD9F3A" transform="translate(0,0)"/>
<path d="" fill="#FD871B" transform="translate(0,0)"/>
<path d="" fill="#FF871E" transform="translate(0,0)"/>
<path d="" fill="#FA9E3B" transform="translate(0,0)"/>
<path d="" fill="#FA8E27" transform="translate(0,0)"/>
<path d="" fill="#FD9027" transform="translate(0,0)"/>
<path d="" fill="#F8B45F" transform="translate(0,0)"/>
<path d="" fill="#FC8C23" transform="translate(0,0)"/>
<path d="" fill="#FC891F" transform="translate(0,0)"/>
<path d="" fill="#FC8B20" transform="translate(0,0)"/>
<path d="" fill="#FF8D22" transform="translate(0,0)"/>
<path d="" fill="#FEA33E" transform="translate(0,0)"/>
<path d="" fill="#FEA33F" transform="translate(0,0)"/>
<path d="" fill="#FDA23E" transform="translate(0,0)"/>
<path d="" fill="#F5B464" transform="translate(0,0)"/>
<path d="" fill="#F39D3B" transform="translate(0,0)"/>
<path d="" fill="#F59B38" transform="translate(0,0)"/>
<path d="" fill="#FCB356" transform="translate(0,0)"/>
<path d="" fill="#FDA643" transform="translate(0,0)"/>
<path d="" fill="#FBA547" transform="translate(0,0)"/>
<path d="" fill="#FFAB4B" transform="translate(0,0)"/>
<path d="" fill="#FCB455" transform="translate(0,0)"/>
<path d="" fill="#FFAC4B" transform="translate(0,0)"/>
<path d="" fill="#FEB353" transform="translate(0,0)"/>
<path d="" fill="#FAAE50" transform="translate(0,0)"/>
<path d="" fill="#FFB152" transform="translate(0,0)"/>
<path d="" fill="#FFB256" transform="translate(0,0)"/>
<path d="" fill="#FCA84A" transform="translate(0,0)"/>
<path d="" fill="#F9BB68" transform="translate(0,0)"/>
<path d="" fill="#FCB053" transform="translate(0,0)"/>
<path d="" fill="#FDAF4E" transform="translate(0,0)"/>
<path d="" fill="#FCB053" transform="translate(0,0)"/>
<path d="" fill="#FEB155" transform="translate(0,0)"/>
<path d="" fill="#F8B761" transform="translate(0,0)"/>
<path d="" fill="#FCB65C" transform="translate(0,0)"/>
<path d="" fill="#FAB057" transform="translate(0,0)"/>
<path d="" fill="#F8B35A" transform="translate(0,0)"/>
<path d="" fill="#FFB65C" transform="translate(0,0)"/>
<path d="" fill="#FFB75A" transform="translate(0,0)"/>
<path d="" fill="#FCB55E" transform="translate(0,0)"/>
<path d="" fill="#F8B360" transform="translate(0,0)"/>
<path d="" fill="#F7B967" transform="translate(0,0)"/>
<path d="" fill="#F9B562" transform="translate(0,0)"/>
<path d="" fill="#D7B996" transform="translate(0,0)"/>
</svg>
